<?xml version="1.0" encoding="UTF-8"?>
<svg width="120px" height="120px" viewBox="0 0 120 120" version="1.1" xmlns="http://www.w3.org/2000/svg" xmlns:xlink="http://www.w3.org/1999/xlink">
    <!-- Generator: Sketch 58 (84663) - https://sketch.com -->
    <title>widget/AdvertisingPopin</title>
    <desc>Created with Sketch.</desc>
    <defs>
        <rect id="path-1" x="0" y="1" width="98.4615385" height="91.0769231" rx="5.68615387"></rect>
        <filter x="-17.8%" y="-13.7%" width="135.5%" height="138.4%" filterUnits="objectBoundingBox" id="filter-2">
            <feOffset dx="0" dy="5" in="SourceAlpha" result="shadowOffsetOuter1"></feOffset>
            <feGaussianBlur stdDeviation="5" in="shadowOffsetOuter1" result="shadowBlurOuter1"></feGaussianBlur>
            <feColorMatrix values="0 0 0 0 0   0 0 0 0 0   0 0 0 0 0  0 0 0 0.106544384 0" type="matrix" in="shadowBlurOuter1"></feColorMatrix>
        </filter>
        <path d="M5.68615387,0.230769231 L92.7753846,0.230769231 C95.9157607,0.230769231 98.4615385,2.77654703 98.4615385,5.9169231 L98.4615385,17.3076923 L98.4615385,17.3076923 L0,17.3076923 L0,5.9169231 C-3.8458515e-16,2.77654703 2.5457778,0.230769231 5.68615387,0.230769231 Z" id="path-3"></path>
        <linearGradient x1="50%" y1="0%" x2="50%" y2="100%" id="linearGradient-5">
            <stop stop-color="#009CB2" offset="0%"></stop>
            <stop stop-color="#217981" offset="100%"></stop>
        </linearGradient>
        <rect id="path-6" x="0.0589893526" y="0.213719212" width="34.4615385" height="28.727955" rx="3.69230769"></rect>
        <linearGradient x1="100%" y1="50%" x2="0%" y2="50%" id="linearGradient-8">
            <stop stop-color="#B0EBD9" offset="0%"></stop>
            <stop stop-color="#4DDBB8" offset="100%"></stop>
        </linearGradient>
        <path d="M15.7025673,12.7188045 L18.5182567,17.868723 C19.1704274,19.0615485 20.6660922,19.4998357 21.8589176,18.8476651 C21.9567578,18.7941715 22.0508499,18.7340915 22.1405438,18.6678401 L24.9952709,16.5592307 C26.0380399,15.789002 27.4994727,15.9595525 28.3368628,16.9491974 L35.5699083,25.4973594 L35.5699083,25.4973594 L35.5699083,27.3304252 C35.5699083,28.6898953 34.46784,29.7919636 33.1083698,29.7919636 L4.45119212,29.7919636 C3.09172196,29.7919636 1.98965366,28.6898953 1.98965366,27.3304252 C1.98965366,26.8385295 2.13702769,26.357915 2.4127675,25.9505713 L11.5043412,12.5198102 C12.2664134,11.3940193 13.7968288,11.0991672 14.9226197,11.8612394 C15.2471629,12.0809297 15.5145594,12.3749366 15.7025673,12.7188045 Z" id="path-9"></path>
        <filter x="-41.7%" y="-54.5%" width="187.4%" height="265.0%" filterUnits="objectBoundingBox" id="filter-10">
            <feOffset dx="0" dy="5" in="SourceAlpha" result="shadowOffsetOuter1"></feOffset>
            <feGaussianBlur stdDeviation="4.5" in="shadowOffsetOuter1" result="shadowBlurOuter1"></feGaussianBlur>
            <feColorMatrix values="0 0 0 0 0   0 0 0 0 0   0 0 0 0 0  0 0 0 0.106544384 0" type="matrix" in="shadowBlurOuter1"></feColorMatrix>
        </filter>
        <circle id="path-11" cx="26.6177384" cy="9.64139555" r="2"></circle>
        <filter x="-400.0%" y="-275.0%" width="900.0%" height="900.0%" filterUnits="objectBoundingBox" id="filter-12">
            <feOffset dx="0" dy="5" in="SourceAlpha" result="shadowOffsetOuter1"></feOffset>
            <feGaussianBlur stdDeviation="4.5" in="shadowOffsetOuter1" result="shadowBlurOuter1"></feGaussianBlur>
            <feColorMatrix values="0 0 0 0 0   0 0 0 0 0   0 0 0 0 0  0 0 0 0.106544384 0" type="matrix" in="shadowBlurOuter1"></feColorMatrix>
        </filter>
        <rect id="path-13" x="0" y="0" width="61.9175881" height="4.30769231" rx="2.15384615"></rect>
        <filter x="-17.8%" y="-162.5%" width="135.5%" height="610.7%" filterUnits="objectBoundingBox" id="filter-15">
            <feOffset dx="0" dy="4" in="SourceAlpha" result="shadowOffsetOuter1"></feOffset>
            <feGaussianBlur stdDeviation="3" in="shadowOffsetOuter1" result="shadowBlurOuter1"></feGaussianBlur>
            <feColorMatrix values="0 0 0 0 0   0 0 0 0 0   0 0 0 0 0  0 0 0 0.106544384 0" type="matrix" in="shadowBlurOuter1"></feColorMatrix>
        </filter>
        <linearGradient x1="100%" y1="50%" x2="0%" y2="50%" id="linearGradient-16">
            <stop stop-color="#B0EBD9" offset="0%"></stop>
            <stop stop-color="#4DDBB8" offset="100%"></stop>
        </linearGradient>
        <rect id="path-17" x="0" y="0" width="61.9175881" height="4.30769231" rx="2.15384615"></rect>
        <filter x="-17.8%" y="-162.5%" width="135.5%" height="610.7%" filterUnits="objectBoundingBox" id="filter-19">
            <feOffset dx="0" dy="4" in="SourceAlpha" result="shadowOffsetOuter1"></feOffset>
            <feGaussianBlur stdDeviation="3" in="shadowOffsetOuter1" result="shadowBlurOuter1"></feGaussianBlur>
            <feColorMatrix values="0 0 0 0 0   0 0 0 0 0   0 0 0 0 0  0 0 0 0.106544384 0" type="matrix" in="shadowBlurOuter1"></feColorMatrix>
        </filter>
    </defs>
    <g id="widget/AdvertisingPopin" stroke="none" stroke-width="1" fill="none" fill-rule="evenodd">
        <g id="Group-4" transform="translate(-23.000000, -22.000000)">
            <rect id="Rectangle" fill-opacity="0" fill="#D8D8D8" fill-rule="nonzero" x="0" y="0" width="160" height="160"></rect>
            <path d="M108.777029,142.281519 C138.141615,142.281519 160.328795,56.2141891 140.545348,59.9040719 C120.761901,63.5939548 114.718694,62.9013924 114.591282,52.4618633 C114.463871,42.0223343 133.486342,21.6661345 108.777029,21.6661345 C97.6498503,21.6661345 92.885312,55.6004715 74.0631269,59.5659917 C55.2409419,63.5315119 28.7545666,64.4182644 28.7545666,82.7851411 C28.7545666,97.5274219 59.6728982,99.9119718 75.9370836,111.078012 C92.2988904,122.311074 94.0508043,142.281519 108.777029,142.281519 Z" id="Oval" fill="#E6F9F9" transform="translate(88.416544, 81.973827) scale(-1, 1) rotate(74.000000) translate(-88.416544, -81.973827) "></path>
            <g id="Group-5" transform="translate(31.000000, 32.000000)">
                <g id="Modal" transform="translate(0.000000, 0.230769)">
                    <g id="Rectangle">
                        <use fill="black" fill-opacity="1" filter="url(#filter-2)" xlink:href="#path-1"></use>
                        <use fill="#FFFFFF" fill-rule="evenodd" xlink:href="#path-1"></use>
                    </g>
                    <g id="gradient/Background" transform="translate(0.000000, 0.769231)">
                        <mask id="mask-4" fill="white">
                            <use xlink:href="#path-3"></use>
                        </mask>
                        <use id="Mask" fill="#2F9BC8" xlink:href="#path-3"></use>
                        <g id="gradient/Background-Blue" mask="url(#mask-4)" fill="url(#linearGradient-5)">
                            <g transform="translate(-8.000000, 0.000000)" id="gradient/Background">
                                <rect x="0" y="0" width="120" height="19"></rect>
                            </g>
                        </g>
                    </g>
                    <ellipse id="Oval" fill="#217981" cx="8.52071006" cy="9.53846154" rx="2.84023669" ry="2.84615385"></ellipse>
                    <ellipse id="Oval-Copy-2" fill="#217981" cx="16.0946746" cy="9.53846154" rx="2.84023669" ry="2.84615385"></ellipse>
                    <ellipse id="Oval-Copy-3" fill="#217981" cx="23.6686391" cy="9.53846154" rx="2.84023669" ry="2.84615385"></ellipse>
                </g>
                <g id="Group-2" transform="translate(49.268951, 42.147630) rotate(-15.000000) translate(-49.268951, -42.147630) translate(31.268951, 27.147630)">
                    <g id="gradient/Background" transform="translate(0.898078, 0.703515)">
                        <mask id="mask-7" fill="white">
                            <use xlink:href="#path-6"></use>
                        </mask>
                        <use id="Mask" fill="#1280AC" xlink:href="#path-6"></use>
                        <g id="gradient/Background-Green" mask="url(#mask-7)">
                            <g transform="translate(-16.800000, -7.780488)" id="gradient/Ready">
                                <g>
                                    <polygon fill="url(#linearGradient-8)" transform="translate(42.000000, 22.500000) rotate(-90.000000) translate(-42.000000, -22.500000) " points="19.5 -19.5 64.5 -19.5 64.5 64.5 19.5 64.5"></polygon>
                                </g>
                            </g>
                        </g>
                    </g>
                    <g id="Path-4">
                        <use fill="black" fill-opacity="1" filter="url(#filter-10)" xlink:href="#path-9"></use>
                        <use fill="#FFFFFF" fill-rule="evenodd" xlink:href="#path-9"></use>
                    </g>
                    <g id="Oval">
                        <use fill="black" fill-opacity="1" filter="url(#filter-12)" xlink:href="#path-11"></use>
                        <use fill="#FFFFFF" fill-rule="evenodd" xlink:href="#path-11"></use>
                    </g>
                </g>
                <g id="gradient/Background" transform="translate(18.000000, 77.615385)">
                    <mask id="mask-14" fill="white">
                        <use xlink:href="#path-13"></use>
                    </mask>
                    <g id="Mask">
                        <use fill="black" fill-opacity="1" filter="url(#filter-15)" xlink:href="#path-13"></use>
                        <use fill="#2F9BC8" fill-rule="evenodd" xlink:href="#path-13"></use>
                    </g>
                    <g id="gradient/Background-Green" mask="url(#mask-14)">
                        <g transform="translate(-3.566038, -2.615385)" id="gradient/Ready">
                            <g>
                                <polygon fill="url(#linearGradient-16)" transform="translate(35.000000, 3.500000) rotate(-90.000000) translate(-35.000000, -3.500000) " points="31.5 -31.5 38.5 -31.5 38.5 38.5 31.5 38.5"></polygon>
                            </g>
                        </g>
                    </g>
                </g>
                <g id="gradient/Background" transform="translate(18.000000, 67.615385)">
                    <mask id="mask-18" fill="white">
                        <use xlink:href="#path-17"></use>
                    </mask>
                    <g id="Mask">
                        <use fill="black" fill-opacity="1" filter="url(#filter-19)" xlink:href="#path-17"></use>
                        <use fill="#2F9BC8" fill-rule="evenodd" xlink:href="#path-17"></use>
                    </g>
                    <g id="gradient/Background-Green" mask="url(#mask-18)">
                        <g transform="translate(-3.566038, -2.615385)" id="gradient/Ready">
                            <g>
                                <polygon fill="url(#linearGradient-16)" transform="translate(35.000000, 3.500000) rotate(-90.000000) translate(-35.000000, -3.500000) " points="31.5 -31.5 38.5 -31.5 38.5 38.5 31.5 38.5"></polygon>
                            </g>
                        </g>
                    </g>
                </g>
            </g>
        </g>
    </g>
</svg>