<?xml version="1.0" encoding="UTF-8"?>
<svg width="120px" height="120px" viewBox="0 0 120 120" version="1.1" xmlns="http://www.w3.org/2000/svg" xmlns:xlink="http://www.w3.org/1999/xlink">
    <!-- Generator: Sketch 58 (84663) - https://sketch.com -->
    <title>widget/ChristmasHat</title>
    <desc>Created with Sketch.</desc>
    <defs>
        <path d="M94.0678443,124.669837 C122.093288,124.699667 123.378747,93.1775613 123.352548,68.3081203 C123.325588,43.4386793 121.971104,10.3757744 93.9456598,10.3459017 C65.9202157,10.3160738 17.6044973,40.1650486 17.6344411,68.1955189 C17.6644128,96.2259892 66.0424002,124.639966 94.0678443,124.669837 Z" id="path-1"></path>
        <path d="M24.7410088,56.5857114 C32.4539975,59.5311197 54.9851173,66.0581704 90.4850553,59.2372248 C92.0401107,58.9390237 89.6173172,47.0055986 89.1952615,45.5953336 C86.4309572,36.359713 81.3233306,28.0617571 75.7453213,20.2880753 C67.1785556,8.3492674 58.1263721,-0.673198668 42.5017171,0.0394695738 C32.9812987,0.47331444 22.0207358,1.8189871 13.7729283,7.00574781 C6.15444576,11.797419 1.81145964,24.006438 0.539922653,32.7231672 C-1.12467391,44.1333948 1.32711574,55.9580896 4.25250995,66.9506205 C4.63053445,68.3705743 7.48504907,74.9342273 6.87505498,76 C6.87505498,76 20.3228473,52.5325453 20.8447789,32.0449482 L21.6427113,52.2817119 C21.7189605,54.2119448 22.9400227,55.8978035 24.7410088,56.5857114" id="path-3"></path>
        <linearGradient x1="50%" y1="0%" x2="50%" y2="100%" id="linearGradient-5">
            <stop stop-color="#009CB2" offset="0%"></stop>
            <stop stop-color="#217981" offset="100%"></stop>
        </linearGradient>
    </defs>
    <g id="widget/ChristmasHat" stroke="none" stroke-width="1" fill="none" fill-rule="evenodd">
        <g id="gradient/Background" transform="translate(55.208471, 56.515124) scale(-1, 1) rotate(65.000000) translate(-55.208471, -56.515124) translate(-15.291529, -10.984876)">
            <mask id="mask-2" fill="white">
                <use xlink:href="#path-1"></use>
            </mask>
            <use id="Mask" fill="#E6F9F9" transform="translate(70.493494, 67.507870) scale(-1, 1) rotate(74.000000) translate(-70.493494, -67.507870) " xlink:href="#path-1"></use>
        </g>
        <g id="Hat" transform="translate(8.000000, 12.798663)">
            <path d="M11.9963557,67.7451899 C11.9963557,67.7451899 18.6501635,83.4979956 57.9136047,83.9483232 C97.1759788,84.3986508 98.9503987,81.9229315 100.502883,75.8467565 C102.055367,69.7705815 100.280947,55.1425123 90.7430399,53.7915295 C81.204066,52.4416292 23.0504687,39 23.0504687,39 L10,60.0928683 L11.9963557,67.7451899" id="Fill-67" fill="#FFFFFF"></path>
            <path d="M29.4273867,80 C32.1222498,78.6759114 34.9656991,77.5746785 37.948114,76.6995625 C58.4519494,70.6857219 80.7516475,75.1874055 101,68.3017102 C100.312655,61.9215166 97.4157573,54.7803526 90.8918582,53.8541429 C81.3353029,52.4985284 23.0745222,39 23.0745222,39 L10,60.1821556 L12.0000352,67.8668699 C12.0000352,67.8668699 15.0936226,75.1754474 29.4273867,80" id="Fill-68" fill="#FFFFFF"></path>
            <path d="M23.916711,67.8984958 C26.354259,68.3699642 28.9004053,68.6149965 31.2487091,68.9322258 C46.605154,71.0062491 63.1034939,72.1581196 78.4319828,69.2560184 C80.3878274,68.8851883 100.781728,64.3225558 101,65.2895582 C99.7796132,59.8725944 96.8496095,54.7258224 91.3659329,53.9469697 C81.7533704,52.5828837 23.1511467,39 23.1511467,39 L10,60.3156215 C10.5892264,62.5821702 10.4376189,62.6084237 12.2794891,63.390558 C14.9686411,64.5314896 17.6373637,66.0421574 20.351246,66.9752491 C21.4856144,67.3657693 22.6877223,67.6611208 23.916711,67.8984958" id="Fill-69" fill="#B8F0F0"></path>
            <g id="gradient/Background" transform="translate(3.000000, 0.000000)">
                <mask id="mask-4" fill="white">
                    <use xlink:href="#path-3"></use>
                </mask>
                <use id="Mask" fill="#DE4749" xlink:href="#path-3"></use>
                <g id="gradient/Background-Blue" mask="url(#mask-4)" fill="url(#linearGradient-5)">
                    <g transform="translate(-11.000000, -0.353133)" id="gradient/Background">
                        <rect x="0" y="0" width="120" height="76"></rect>
                    </g>
                </g>
            </g>
            <path d="M33.1731077,32.6302549 C24.8692787,23.0670215 13.7658059,26.626729 7.40142476,36.2670679 C5.78682102,38.7119572 4.35921638,41.2767886 3,43.8833854 C3,48.2013366 3,60.2013366 5,67.2013366 C5.40039037,68.6027029 9.36028495,83.9397983 8.7522707,85 C8.7522707,85 22,68.2013366 23.6532502,43.2747125 L24.447195,52.4056935 C24.5230632,54.3258365 25.7380232,56.0028828 27.5300089,56.6871948 C31.4965272,58.2014627 39.411398,60.6634866 51,61.7568865 C50.499911,61.1946583 50.0190561,60.6120829 49.5595726,60.0080892 C43.1171861,51.523263 40.1796972,40.6995677 33.1731077,32.6302549 Z" id="Fill-72" fill="#217981"></path>
            <path d="M17,88.5 C17,93.1946248 13.1930916,97 8.5,97 C3.80537518,97 0,93.1946248 0,88.5 C0,83.8069084 3.80537518,80 8.5,80 C13.1930916,80 17,83.8069084 17,88.5" id="Fill-73" fill="#E6F9F9"></path>
            <path d="M8.48125384,80 C7.97418562,80 7.4824831,80.0541007 7,80.1391162 C9.39244007,85.5631024 11.7664413,91.4106201 9.97480025,97 C13.9652735,96.2889616 17,92.7894163 17,88.5695581 C17,83.8380615 13.1846958,80 8.48125384,80" id="Fill-74" fill="#B8F0F0"></path>
        </g>
    </g>
</svg>