<?xml version="1.0" encoding="UTF-8"?>
<svg width="120px" height="120px" viewBox="0 0 120 120" version="1.1" xmlns="http://www.w3.org/2000/svg" xmlns:xlink="http://www.w3.org/1999/xlink">
    <!-- Generator: Sketch 62 (91390) - https://sketch.com -->
    <title>widget/CookieDisclaimer</title>
    <desc>Created with Sketch.</desc>
    <defs>
        <rect id="path-1" x="0.468312754" y="0.323700618" width="104.615385" height="76.5729857" rx="6.03076935"></rect>
        <filter x="-10.5%" y="-9.1%" width="121.0%" height="128.7%" filterUnits="objectBoundingBox" id="filter-3">
            <feOffset dx="0" dy="4" in="SourceAlpha" result="shadowOffsetOuter1"></feOffset>
            <feGaussianBlur stdDeviation="3" in="shadowOffsetOuter1" result="shadowBlurOuter1"></feGaussianBlur>
            <feColorMatrix values="0 0 0 0 0   0 0 0 0 0   0 0 0 0 0  0 0 0 0.106544384 0" type="matrix" in="shadowBlurOuter1"></feColorMatrix>
        </filter>
        <linearGradient x1="50%" y1="0%" x2="50%" y2="100%" id="linearGradient-4">
            <stop stop-color="#009CB2" offset="0%"></stop>
            <stop stop-color="#217981" offset="100%"></stop>
        </linearGradient>
        <rect id="path-5" x="0" y="0.896686344" width="114.615385" height="36" rx="2"></rect>
        <linearGradient x1="55.5555556%" y1="0%" x2="48.0952632%" y2="67.1426309%" id="linearGradient-7">
            <stop stop-color="#B0EBD9" offset="0%"></stop>
            <stop stop-color="#4DDBB8" offset="100%"></stop>
        </linearGradient>
        <path d="M27.0445,90 L25.2765,90 C25.0781657,90 24.9152506,89.9504172 24.78775,89.85125 C24.6602494,89.7520828 24.5681669,89.6288341 24.5115,89.4815 L23.5935,86.974 L18.502,86.974 L17.584,89.4815 C17.5386664,89.611834 17.4494173,89.7308328 17.31625,89.8385 C17.1830827,89.9461672 17.0201676,90 16.8275,90 L15.051,90 L19.879,77.709 L22.2165,77.709 L27.0445,90 Z M19.0885,85.359 L23.007,85.359 L21.4036875,80.9740626 C21.366146,80.8671046 21.3268335,80.7520006 21.28575,80.62875 C21.2035829,80.3822488 21.1228337,80.1145014 21.0435,79.8255 L20.8867223,80.3770553 C20.8609075,80.4645737 20.8352501,80.5498885 20.80975,80.633 C20.7332496,80.8823346 20.658167,81.1004991 20.5845,81.2875 L19.0885,85.359 Z M35.026,90 L34.0825,90 C33.8841657,90 33.7283339,89.9702503 33.615,89.91075 C33.5016661,89.8512497 33.4166669,89.7308342 33.36,89.5495 L33.173,88.929 C32.9519989,89.1273343 32.7352511,89.3015826 32.52275,89.45175 C32.3102489,89.6019174 32.0906678,89.7279995 31.864,89.83 C31.6373322,89.9320005 31.3965013,90.0084997 31.1415,90.0595 C30.8864987,90.1105003 30.6031682,90.136 30.2915,90.136 C29.9231648,90.136 29.5831682,90.0864172 29.2715,89.98725 C28.9598318,89.8880828 28.6920845,89.7393343 28.46825,89.541 C28.2444155,89.3426657 28.0701673,89.0961681 27.9455,88.8015 C27.8208327,88.5068319 27.7585,88.164002 27.7585,87.773 C27.7585,87.4443317 27.8449158,87.1199183 28.01775,86.79975 C28.1905842,86.4795817 28.4781647,86.1905846 28.8805,85.93275 C29.2828353,85.6749154 29.81833,85.4610009 30.487,85.291 C31.15567,85.1209992 31.9858284,85.0246668 32.9775,85.002 L32.9775,84.492 C32.9775,83.9083304 32.8542512,83.4762514 32.60775,83.19575 C32.3612488,82.9152486 32.0028357,82.775 31.5325,82.775 C31.1924983,82.775 30.9091678,82.8146663 30.6825,82.894 C30.4558322,82.9733337 30.2589175,83.0625828 30.09175,83.16175 L29.6285,83.4295 L29.6285,83.4295 C29.4868326,83.5088337 29.3310009,83.5485 29.161,83.5485 C29.0193326,83.5485 28.8975005,83.511667 28.7955,83.438 C28.6934995,83.364333 28.6113336,83.2736672 28.549,83.166 L28.1665,82.4945 C29.169505,81.5764954 30.3793262,81.1175 31.796,81.1175 C32.3060026,81.1175 32.760748,81.2010825 33.16025,81.36825 C33.559752,81.5354175 33.8983319,81.7677485 34.176,82.06525 C34.4536681,82.3627515 34.6647493,82.7183313 34.80925,83.132 C34.9537507,83.5456687 35.026,83.9989975 35.026,84.492 L35.026,90 Z M30.946,88.691 C31.1613344,88.691 31.3596658,88.6711669 31.541,88.6315 C31.7223342,88.5918331 31.8937492,88.5323337 32.05525,88.453 C32.2167508,88.3736663 32.3725826,88.2759172 32.52275,88.15975 C32.6729174,88.0435828 32.8244992,87.9061675 32.9775,87.7475 L32.9775,86.277 C32.3654969,86.3053335 31.8540854,86.3577496 31.44325,86.43425 C31.0324146,86.5107504 30.7023346,86.6084994 30.453,86.7275 C30.2036654,86.8465006 30.0265839,86.9853325 29.92175,87.144 C29.8169161,87.3026675 29.7645,87.4754991 29.7645,87.6625 C29.7645,88.0308352 29.8735822,88.2943325 30.09175,88.453 C30.3099178,88.6116675 30.5946649,88.691 30.946,88.691 Z M37.2105,90 L37.2105,77.709 L41.452,77.709 C42.2566707,77.709 42.9437472,77.7854992 43.51325,77.9385 C44.0827528,78.0915008 44.5502482,78.3096652 44.91575,78.593 C45.2812518,78.8763347 45.5489992,79.2191647 45.719,79.6215 C45.8890009,80.0238353 45.974,80.4771641 45.974,80.9815 C45.974,81.2705014 45.9315004,81.5467487 45.8465,81.81025 C45.7614996,82.0737513 45.6297509,82.3202489 45.45125,82.54975 C45.2727491,82.7792511 45.0460847,82.9874991 44.77125,83.1745 C44.4964153,83.3615009 44.1691686,83.520166 43.7895,83.6505 C45.4781751,84.0301686 46.3225,84.9424928 46.3225,86.3875 C46.3225,86.9088359 46.2233343,87.3904978 46.025,87.8325 C45.8266657,88.2745022 45.5376686,88.6555817 45.158,88.97575 C44.7783314,89.2959183 44.3108361,89.5466658 43.7555,89.728 C43.2001639,89.9093342 42.5655036,90 41.8515,90 L37.2105,90 Z M39.497,84.611 L39.497,88.215 L41.8175,88.215 C42.2425021,88.215 42.5980819,88.1640005 42.88425,88.062 C43.1704181,87.9599995 43.3999158,87.8240009 43.57275,87.654 C43.7455842,87.4839992 43.8702496,87.2856678 43.94675,87.059 C44.0232504,86.8323322 44.0615,86.5915013 44.0615,86.3365 C44.0615,86.0701653 44.0190004,85.8307511 43.934,85.61825 C43.8489996,85.4057489 43.7158342,85.2244174 43.5345,85.07425 C43.3531658,84.9240826 43.1208348,84.8093337 42.8375,84.73 C42.5541653,84.6506663 42.2113353,84.611 41.809,84.611 L39.497,84.611 Z M39.497,83.03 L41.3245,83.03 C42.1008372,83.03 42.6901647,82.8883347 43.0925,82.605 C43.4948353,82.3216652 43.696,81.8711698 43.696,81.2535 C43.696,80.6131635 43.5146685,80.1570014 43.152,79.885 C42.7893315,79.6129986 42.2226705,79.477 41.452,79.477 L39.497,79.477 L39.497,83.03 Z M48.1925,90 L48.1925,77.369 L50.292,77.369 L50.292,82.35 C50.6376684,81.9816648 51.0286645,81.6884178 51.465,81.47025 C51.9013355,81.2520822 52.4113304,81.143 52.995,81.143 C53.4710024,81.143 53.9059147,81.240749 54.29975,81.43625 C54.6935853,81.631751 55.0335819,81.9164981 55.31975,82.2905 C55.6059181,82.6645019 55.8269159,83.1263306 55.98275,83.676 C56.1385841,84.2256694 56.2165,84.8574964 56.2165,85.5715 C56.2165,86.2231699 56.1286675,86.8266639 55.953,87.382 C55.7773325,87.9373361 55.526585,88.418998 55.20075,88.827 C54.874915,89.235002 54.4810856,89.5537489 54.01925,89.78325 C53.5574144,90.0127511 53.0403362,90.1275 52.468,90.1275 C52.2016653,90.1275 51.9580011,90.1005836 51.737,90.04675 C51.5159989,89.9929164 51.3148342,89.9178338 51.1335,89.8215 C50.9521658,89.7251662 50.7835841,89.607584 50.62775,89.46875 C50.4719159,89.329916 50.3231674,89.1755008 50.1815,89.0055 L50.088,89.592 C50.0539998,89.7393341 49.9959171,89.8441664 49.91375,89.9065 C49.8315829,89.9688336 49.7196674,90 49.578,90 L48.1925,90 Z M52.2725,82.775 C51.8361645,82.775 51.4635849,82.8670824 51.15475,83.05125 C50.8459151,83.2354176 50.5583347,83.494665 50.292,83.829 L50.292,87.739 C50.5300012,88.0336681 50.7892486,88.2390828 51.06975,88.35525 C51.3502514,88.4714172 51.6548317,88.5295 51.9835,88.5295 C52.3008349,88.5295 52.5869987,88.4700006 52.842,88.351 C53.0970013,88.2319994 53.3137491,88.0506679 53.49225,87.807 C53.6707509,87.5633321 53.8081662,87.2559185 53.9045,86.88475 C54.0008338,86.5135815 54.049,86.0758359 54.049,85.5715 C54.049,85.0614975 54.0079171,84.6294184 53.92575,84.27525 C53.8435829,83.9210816 53.7260008,83.6335011 53.573,83.4125 C53.4199992,83.1914989 53.2344178,83.0300005 53.01625,82.928 C52.7980822,82.8259995 52.5501681,82.775 52.2725,82.775 Z M66.425,87.1015 C66.5496673,87.1015 66.6573329,87.1496662 66.748,87.246 L67.649,88.2235 C67.1503308,88.8411698 66.5369203,89.3143317 65.80875,89.643 C65.0805797,89.9716683 64.2065051,90.136 63.1865,90.136 C62.2741621,90.136 61.4539203,89.9801682 60.72575,89.6685 C59.9975797,89.3568318 59.3756692,88.9233361 58.86,88.368 C58.3443308,87.8126639 57.9490847,87.1496705 57.67425,86.379 C57.3994153,85.6083295 57.262,84.7668379 57.262,83.8545 C57.262,82.9308287 57.4149985,82.0850872 57.721,81.31725 C58.0270015,80.5494128 58.4576639,79.8878361 59.013,79.3325 C59.5683361,78.7771639 60.2327461,78.3450849 61.00625,78.03625 C61.7797539,77.7274151 62.6339953,77.573 63.569,77.573 C64.4813379,77.573 65.2789133,77.7189152 65.96175,78.01075 C66.6445867,78.3025848 67.2296642,78.6893309 67.717,79.171 L66.952,80.2335 C66.9066664,80.3015003 66.8485837,80.3609997 66.77775,80.412 C66.7069163,80.4630003 66.6091673,80.4885 66.4845,80.4885 C66.354166,80.4885 66.2210007,80.4375005 66.085,80.3355 C65.9489993,80.2334995 65.7761677,80.1230006 65.5665,80.004 C65.3568323,79.8849994 65.0919183,79.7745005 64.77175,79.6725 C64.4515817,79.5704995 64.0450025,79.5195 63.552,79.5195 C62.9739971,79.5195 62.4427524,79.6200823 61.95825,79.82125 C61.4737476,80.0224177 61.0572517,80.3099981 60.70875,80.684 C60.3602483,81.0580019 60.088251,81.5127473 59.89275,82.04825 C59.697249,82.5837527 59.5995,83.18583 59.5995,83.8545 C59.5995,84.5458368 59.697249,85.160664 59.89275,85.699 C60.088251,86.237336 60.353165,86.6906648 60.6875,87.059 C61.021835,87.4273352 61.4156644,87.709249 61.869,87.90475 C62.3223356,88.100251 62.8096641,88.198 63.331,88.198 C63.6426682,88.198 63.9245821,88.1810002 64.17675,88.147 C64.4289179,88.1129998 64.6612489,88.059167 64.87375,87.9855 C65.0862511,87.911833 65.2874157,87.8169172 65.47725,87.70075 C65.6670843,87.5845828 65.8554991,87.4415008 66.0425,87.2715 C66.099167,87.2204997 66.1586664,87.1794168 66.221,87.14825 C66.2833336,87.1170832 66.351333,87.1015 66.425,87.1015 Z M75.384,83.1235 C75.3216664,83.2028337 75.2607503,83.2651664 75.20125,83.3105 C75.1417497,83.3558336 75.0553339,83.3785 74.942,83.3785 C74.8343328,83.3785 74.7295005,83.345917 74.6275,83.28075 L74.3970558,83.1390834 C74.354241,83.1135835 74.3092225,83.087139 74.262,83.05975 C74.1203326,82.9775829 73.951751,82.903917 73.75625,82.83875 C73.560749,82.773583 73.3185014,82.741 73.0295,82.741 C72.6611648,82.741 72.3381681,82.8075827 72.0605,82.94075 C71.7828319,83.0739173 71.5519176,83.2651654 71.36775,83.5145 C71.1835824,83.7638346 71.0461671,84.0655816 70.9555,84.41975 C70.8648329,84.7739184 70.8195,85.1748311 70.8195,85.6225 C70.8195,86.087169 70.8690828,86.5008315 70.96825,86.8635 C71.0674172,87.2261685 71.2104991,87.5307488 71.3975,87.77725 C71.5845009,88.0237512 71.8111653,88.2107494 72.0775,88.33825 C72.3438347,88.4657506 72.644165,88.5295 72.9785,88.5295 C73.312835,88.5295 73.5834156,88.4884171 73.79025,88.40625 C73.9970844,88.3240829 74.1713326,88.2334172 74.313,88.13425 L74.5717777,87.9472501 C74.6108147,87.9179723 74.6478054,87.889639 74.68275,87.86225 C74.7875839,87.7800829 74.905166,87.739 75.0355,87.739 C75.1715007,87.739 75.2803,87.7807062 75.3618999,87.8641197 L76.0215,88.6995 C75.7891655,88.9715014 75.5370014,89.1995824 75.265,89.38375 C74.9929986,89.5679176 74.7110848,89.7152494 74.41925,89.82575 C74.1274152,89.9362506 73.8256682,90.0141664 73.514,90.0595 C73.2023318,90.1048336 72.8935015,90.1275 72.5875,90.1275 C72.049164,90.1275 71.5420024,90.0269177 71.066,89.82575 C70.5899976,89.6245823 70.1749184,89.3313353 69.82075,88.946 C69.4665816,88.5606647 69.1860844,88.0889195 68.97925,87.53075 C68.7724156,86.9725805 68.669,86.3365036 68.669,85.6225 C68.669,84.9821635 68.7610824,84.3885861 68.94525,83.84175 C69.1294176,83.2949139 69.3999982,82.821752 69.757,82.42225 C70.1140018,82.022748 70.5559974,81.7096678 71.083,81.483 C71.6100026,81.2563322 72.2163299,81.143 72.902,81.143 C73.5536699,81.143 74.1245809,81.2478323 74.61475,81.4575 C75.1049191,81.6671677 75.545498,81.967498 75.9365,82.3585 L75.384,83.1235 Z" id="path-8"></path>
        <filter x="-18.0%" y="-54.8%" width="136.1%" height="272.3%" filterUnits="objectBoundingBox" id="filter-9">
            <feOffset dx="0" dy="4" in="SourceAlpha" result="shadowOffsetOuter1"></feOffset>
            <feGaussianBlur stdDeviation="3" in="shadowOffsetOuter1" result="shadowBlurOuter1"></feGaussianBlur>
            <feColorMatrix values="0 0 0 0 0   0 0 0 0 0   0 0 0 0 0  0 0 0 0.106544384 0" type="matrix" in="shadowBlurOuter1"></feColorMatrix>
        </filter>
        <polygon id="path-10" points="6 0.743 5.257 0 3 2.2565 0.743 0 0 0.743 2.257 3 0 5.2565 0.743 6 3 3.743 5.257 6 6 5.2565 3.743 3"></polygon>
    </defs>
    <g id="widget/CookieDisclaimer" stroke="none" stroke-width="1" fill="none" fill-rule="evenodd">
        <path d="M85.7770289,120.281519 C115.141615,120.281519 137.328795,34.2141891 117.545348,37.9040719 C97.7619011,41.5939548 91.7186936,40.9013924 91.5912821,30.4618633 C91.4638706,20.0223343 110.486342,-0.333865452 85.7770289,-0.333865452 C74.6498503,-0.333865452 69.885312,33.6004715 51.0631269,37.5659917 C32.2409419,41.5315119 5.75456655,42.4182644 5.75456655,60.7851411 C5.75456655,75.5274219 36.6728982,77.9119718 52.9370836,89.0780125 C69.2988904,100.311074 71.0508043,120.281519 85.7770289,120.281519 Z" id="Oval" fill="#E6F9F9" transform="translate(65.416544, 59.973827) scale(-1, 1) rotate(74.000000) translate(-65.416544, -59.973827) "></path>
        <g id="Group" transform="translate(7.000000, 21.000000)">
            <g id="gradient/Background" transform="translate(0.531687, 0.676299)">
                <mask id="mask-2" fill="white">
                    <use xlink:href="#path-1"></use>
                </mask>
                <g id="Mask">
                    <use fill="black" fill-opacity="1" filter="url(#filter-3)" xlink:href="#path-1"></use>
                    <use fill="#117EA9" fill-rule="evenodd" xlink:href="#path-1"></use>
                </g>
                <g id="gradient/Background-Blue" mask="url(#mask-2)" fill="url(#linearGradient-4)">
                    <g transform="translate(-7.000000, 0.000000)" id="gradient/Background">
                        <rect x="0" y="0" width="120" height="81"></rect>
                    </g>
                </g>
            </g>
        </g>
        <g id="gradient/Background" transform="translate(3.000000, 65.000000)">
            <mask id="mask-6" fill="white">
                <use xlink:href="#path-5"></use>
            </mask>
            <use id="Mask" fill="#496BE0" xlink:href="#path-5"></use>
            <g id="gradient/Background-Green" mask="url(#mask-6)">
                <g transform="translate(-3.000000, -2.000000)" id="gradient/Ready">
                    <g>
                        <polygon fill="url(#linearGradient-7)" transform="translate(60.000000, 20.000000) rotate(-90.000000) translate(-60.000000, -20.000000) " points="40 -40 80 -40 80 80 40 80"></polygon>
                    </g>
                </g>
            </g>
        </g>
        <g id="AaBbCc" fill-rule="nonzero">
            <use fill="black" fill-opacity="1" filter="url(#filter-9)" xlink:href="#path-8"></use>
            <use fill="#FFFFFF" xlink:href="#path-8"></use>
        </g>
        <g id="icon/Cross/24" transform="translate(96.000000, 78.000000)">
            <rect id="Rectangle-2" fill="#FFFFFF" opacity="0" x="0" y="0" width="12" height="12"></rect>
            <g id="colour/colourDarkGrey1" stroke-width="1" transform="translate(3.000000, 3.000000)">
                <mask id="mask-11" fill="white">
                    <use xlink:href="#path-10"></use>
                </mask>
                <use id="Mask" fill="#000000" xlink:href="#path-10"></use>
                <g id="colour/colourWhite" mask="url(#mask-11)" fill="#FFFFFF">
                    <g transform="translate(-3.000000, -3.000000)" id="colour-white">
                        <rect x="0" y="0" width="12" height="12"></rect>
                    </g>
                </g>
            </g>
        </g>
    </g>
</svg>