<?xml version="1.0" encoding="UTF-8"?>
<svg width="120px" height="120px" viewBox="0 0 120 120" version="1.1" xmlns="http://www.w3.org/2000/svg" xmlns:xlink="http://www.w3.org/1999/xlink">
    <!-- Generator: Sketch 58 (84663) - https://sketch.com -->
    <title>widget/FindAndReplace</title>
    <desc>Created with Sketch.</desc>
    <defs>
        <rect id="path-1" x="0.468312754" y="0.323700618" width="104.615385" height="76.5729857" rx="6.03076935"></rect>
        <filter x="-10.5%" y="-9.1%" width="121.0%" height="128.7%" filterUnits="objectBoundingBox" id="filter-3">
            <feOffset dx="0" dy="4" in="SourceAlpha" result="shadowOffsetOuter1"></feOffset>
            <feGaussianBlur stdDeviation="3" in="shadowOffsetOuter1" result="shadowBlurOuter1"></feGaussianBlur>
            <feColorMatrix values="0 0 0 0 0   0 0 0 0 0   0 0 0 0 0  0 0 0 0.106544384 0" type="matrix" in="shadowBlurOuter1"></feColorMatrix>
        </filter>
        <linearGradient x1="50%" y1="0%" x2="50%" y2="100%" id="linearGradient-4">
            <stop stop-color="#009CB2" offset="0%"></stop>
            <stop stop-color="#217981" offset="100%"></stop>
        </linearGradient>
        <path d="M87,27.9747681 L78.4003577,21.1839122 C77.7620449,20.6818939 76.896536,21.2761505 77.010134,22.1395615 L78.5437076,33.7857811 L80.496512,30.2731651 L83.0943911,35 L85.9127044,33.0629957 L83.3148254,28.3361608 L87,27.9747681 Z" id="path-5"></path>
    </defs>
    <g id="widget/FindAndReplace" stroke="none" stroke-width="1" fill="none" fill-rule="evenodd">
        <path d="M85.7770289,120.281519 C115.141615,120.281519 137.328795,34.2141891 117.545348,37.9040719 C97.7619011,41.5939548 91.7186936,40.9013924 91.5912821,30.4618633 C91.4638706,20.0223343 110.486342,-0.333865452 85.7770289,-0.333865452 C74.6498503,-0.333865452 69.885312,33.6004715 51.0631269,37.5659917 C32.2409419,41.5315119 5.75456655,42.4182644 5.75456655,60.7851411 C5.75456655,75.5274219 36.6728982,77.9119718 52.9370836,89.0780125 C69.2988904,100.311074 71.0508043,120.281519 85.7770289,120.281519 Z" id="Oval" fill="#E6F9F9" transform="translate(65.416544, 59.973827) scale(-1, 1) rotate(74.000000) translate(-65.416544, -59.973827) "></path>
        <g id="screens" transform="translate(1.000000, 12.000000)"></g>
        <g id="Group-4" transform="translate(7.000000, 21.000000)">
            <g id="Group">
                <g id="gradient/Background" transform="translate(0.531687, 0.676299)">
                    <mask id="mask-2" fill="white">
                        <use xlink:href="#path-1"></use>
                    </mask>
                    <g id="Mask">
                        <use fill="black" fill-opacity="1" filter="url(#filter-3)" xlink:href="#path-1"></use>
                        <use fill="#117EA9" fill-rule="evenodd" xlink:href="#path-1"></use>
                    </g>
                    <g id="gradient/Background-Blue" mask="url(#mask-2)" fill="url(#linearGradient-4)">
                        <g transform="translate(-7.000000, 0.000000)" id="gradient/Background">
                            <rect x="0" y="0" width="120" height="81"></rect>
                        </g>
                    </g>
                </g>
            </g>
            <g id="Group-2" transform="translate(25.000000, 28.000000)">
                <rect id="Rectangle" fill="#FFFFFF" x="0" y="0" width="54" height="25"></rect>
                <path d="M20.8153846,25 L18.5076923,25 C18.2410243,25 18.0256418,24.933334 17.8615385,24.8 C17.6974351,24.666666 17.5743594,24.4974369 17.4923077,24.2923077 L15.4307692,18.9692308 L5.53846154,18.9692308 L3.47692308,24.2923077 C3.40512785,24.476924 3.28205215,24.6410249 3.10769231,24.7846154 C2.93333246,24.9282058 2.71795,25 2.46153846,25 L0.153846154,25 L8.96923077,2.95384615 L12,2.95384615 L20.8153846,25 Z M6.36923077,16.8153846 L14.6,16.8153846 L11.1384615,7.84615385 C10.9128194,7.29230492 10.6923088,6.60000415 10.4769231,5.76923077 L10.3096154,6.37500012 C10.2544873,6.56858938 10.2000003,6.75384527 10.1461538,6.93076923 C10.038461,7.28461715 9.93333385,7.59487046 9.83076923,7.86153846 L6.36923077,16.8153846 Z M34.6153846,25 L33.4,25 C33.133332,25 32.9179495,24.9589748 32.7538462,24.8769231 C32.5897428,24.7948714 32.4820515,24.6205142 32.4307692,24.3538462 L32.1230769,22.9076923 C31.7128185,23.2769249 31.3128225,23.6076908 30.9230769,23.9 C30.5333314,24.1923092 30.1230791,24.4384605 29.6923077,24.6384615 C29.2615363,24.8384625 28.8025665,24.9897431 28.3153846,25.0923077 C27.8282027,25.1948723 27.2871825,25.2461538 26.6923077,25.2461538 C26.0871765,25.2461538 25.5205155,25.1615393 24.9923077,24.9923077 C24.4640999,24.8230761 24.0051302,24.5692325 23.6153846,24.2307692 C23.2256391,23.892306 22.9153858,23.4641052 22.6846154,22.9461538 C22.453845,22.4282025 22.3384615,21.8153882 22.3384615,21.1076923 C22.3384615,20.4923046 22.5076906,19.9000028 22.8461538,19.3307692 C23.1846171,18.7615356 23.7307655,18.2564125 24.4846154,17.8153846 C25.2384653,17.3743568 26.2256349,17.0128219 27.4461538,16.7307692 C28.6666728,16.4487165 30.1589655,16.2871797 31.9230769,16.2461538 L31.9230769,15.0307692 C31.9230769,13.8205068 31.6641052,12.9051313 31.1461538,12.2846154 C30.6282025,11.6640995 29.8615435,11.3538462 28.8461538,11.3538462 C28.1794838,11.3538462 27.617951,11.4384607 27.1615385,11.6076923 C26.7051259,11.7769239 26.3102581,11.9666656 25.9769231,12.1769231 L25.5115383,12.4769232 C25.3679489,12.5717947 25.235898,12.661538 25.1153846,12.7461538 C24.8743578,12.9153855 24.6358986,13 24.4,13 C24.2153837,13 24.0538468,12.9512825 23.9153846,12.8538462 C23.7769224,12.7564098 23.6666671,12.6358982 23.5846154,12.4923077 L23.0923077,11.6153846 C23.9538505,10.7846112 24.8820463,10.1641046 25.8769231,9.75384615 C26.8717998,9.34358769 27.9743529,9.13846154 29.1846154,9.13846154 C30.0564146,9.13846154 30.8307658,9.28204985 31.5076923,9.56923077 C32.1846188,9.85641169 32.7538438,10.2564077 33.2153846,10.7692308 C33.6769254,11.2820538 34.0256398,11.9025605 34.2615385,12.6307692 C34.4974371,13.358978 34.6153846,14.15897 34.6153846,15.0307692 L34.6153846,25 Z M27.5076923,23.3230769 C27.989746,23.3230769 28.4307672,23.2743595 28.8307692,23.1769231 C29.2307712,23.0794867 29.6076905,22.9410265 29.9615385,22.7615385 C30.3153864,22.5820504 30.6538445,22.3641038 30.9769231,22.1076923 C31.3000016,21.8512808 31.6153831,21.558976 31.9230769,21.2307692 L31.9230769,17.9846154 C30.6615322,18.0256412 29.589748,18.1256402 28.7076923,18.2846154 C27.8256366,18.4435905 27.1076951,18.6512808 26.5538462,18.9076923 C25.9999972,19.1641038 25.5974372,19.4666649 25.3461538,19.8153846 C25.0948705,20.1641043 24.9692308,20.553844 24.9692308,20.9846154 C24.9692308,21.3948738 25.0358968,21.7487165 25.1692308,22.0461538 C25.3025648,22.3435912 25.4820502,22.5871785 25.7076923,22.7769231 C25.9333345,22.9666676 26.1999985,23.1051278 26.5076923,23.1923077 C26.8153862,23.2794876 27.1487162,23.3230769 27.5076923,23.3230769 Z M41.6153846,2.33846154 L41.6153846,11.6615385 C42.2615417,10.9128168 43.0025599,10.3102587 43.8384615,9.85384615 C44.6743632,9.39743362 45.6307638,9.16923077 46.7076923,9.16923077 C47.6102609,9.16923077 48.4256374,9.33846154 49.1538462,9.67692308 C49.8820549,10.0153863 50.5025615,10.5205095 51.0153846,11.1923077 C51.5282077,11.8641059 51.9230755,12.6948668 52.2,13.6846154 C52.4769245,14.6743639 52.6153846,15.8153782 52.6153846,17.1076923 C52.6153846,18.256416 52.46154,19.3256361 52.1538462,20.3153846 C51.8461523,21.3051332 51.402567,22.1615348 50.8230769,22.8846154 C50.2435868,23.6076959 49.5359016,24.176921 48.7,24.5923077 C47.8640984,25.0076944 46.9230822,25.2153846 45.8769231,25.2153846 C44.8717898,25.2153846 44.0179522,25.0205148 43.3153846,24.6307692 C42.612817,24.2410237 42.0000026,23.6974394 41.4769231,23 L41.3384615,24.4153846 C41.2564098,24.8051302 41.0205148,25 40.6307692,25 L38.8615385,25 L38.8615385,2.33846154 L41.6153846,2.33846154 Z M45.8153846,11.3538462 C44.9230725,11.3538462 44.141029,11.5589723 43.4692308,11.9692308 C42.7974325,12.3794892 42.17949,12.9589706 41.6153846,13.7076923 L41.6153846,13.7076923 L41.6153846,21.2461538 C42.1076948,21.9230803 42.6538432,22.3999986 43.2538462,22.6769231 C43.8538492,22.9538475 44.5230732,23.0923077 45.2615385,23.0923077 C46.717956,23.0923077 47.8358935,22.5743642 48.6153846,21.5384615 C49.3948757,20.5025589 49.7846154,19.0256506 49.7846154,17.1076923 C49.7846154,16.0923026 49.6948727,15.2205165 49.5153846,14.4923077 C49.3358965,13.7640989 49.0769248,13.166669 48.7384615,12.7 C48.3999983,12.233331 47.9846178,11.8923088 47.4923077,11.6769231 C46.9999975,11.4615374 46.4410288,11.3538462 45.8153846,11.3538462 Z" id="Aab" fill="#4DDBB8"></path>
            </g>
            <mask id="mask-6" fill="white">
                <use xlink:href="#path-5"></use>
            </mask>
            <use id="Combined-Shape" fill="#17545A" xlink:href="#path-5"></use>
        </g>
    </g>
</svg>