<?xml version="1.0" encoding="UTF-8"?>
<svg width="120px" height="120px" viewBox="0 0 120 120" version="1.1" xmlns="http://www.w3.org/2000/svg" xmlns:xlink="http://www.w3.org/1999/xlink">
    <!-- Generator: Sketch 58 (84663) - https://sketch.com -->
    <title>widget/ImagePopin</title>
    <desc>Created with Sketch.</desc>
    <defs>
        <rect id="path-1" x="0" y="1" width="98.4615385" height="91.0769231" rx="5.68615387"></rect>
        <filter x="-17.8%" y="-13.7%" width="135.5%" height="138.4%" filterUnits="objectBoundingBox" id="filter-2">
            <feOffset dx="0" dy="5" in="SourceAlpha" result="shadowOffsetOuter1"></feOffset>
            <feGaussianBlur stdDeviation="5" in="shadowOffsetOuter1" result="shadowBlurOuter1"></feGaussianBlur>
            <feColorMatrix values="0 0 0 0 0   0 0 0 0 0   0 0 0 0 0  0 0 0 0.106544384 0" type="matrix" in="shadowBlurOuter1"></feColorMatrix>
        </filter>
        <path d="M5.68615387,0.230769231 L92.7753846,0.230769231 C95.9157607,0.230769231 98.4615385,2.77654703 98.4615385,5.9169231 L98.4615385,17.3076923 L98.4615385,17.3076923 L0,17.3076923 L0,5.9169231 C-3.8458515e-16,2.77654703 2.5457778,0.230769231 5.68615387,0.230769231 Z" id="path-3"></path>
        <linearGradient x1="50%" y1="0%" x2="50%" y2="100%" id="linearGradient-5">
            <stop stop-color="#009CB2" offset="0%"></stop>
            <stop stop-color="#217981" offset="100%"></stop>
        </linearGradient>
        <rect id="path-6" x="0.0842705037" y="0.302154748" width="49.2307692" height="40.6153846" rx="3.69230769"></rect>
        <linearGradient x1="100%" y1="50%" x2="0%" y2="50%" id="linearGradient-8">
            <stop stop-color="#B0EBD9" offset="0%"></stop>
            <stop stop-color="#4DDBB8" offset="100%"></stop>
        </linearGradient>
        <path d="M20.6348991,15.6845928 L25.9516511,25.5585608 C26.5961756,26.755535 28.0890053,27.2033839 29.2859795,26.5588593 C29.3940775,26.5006527 29.4976693,26.4344403 29.5958876,26.3607766 L35.2830139,22.0954319 C36.3313928,21.3091477 37.8119984,21.4820904 38.6509432,22.4888241 L49.4615385,35.4615385 L49.4615385,35.4615385 L49.4615385,39.1538462 C49.4615385,40.5133163 48.3594702,41.6153846 47,41.6153846 L3.59942669,41.6153846 C2.23995653,41.6153846 1.13788823,40.5133163 1.13788823,39.1538462 C1.13788823,38.667877 1.28173568,38.1927811 1.55130289,37.7884303 L16.4194618,15.4861919 C17.1735602,14.3550444 18.7018539,14.0493856 19.8330015,14.803484 C20.1684165,15.0270939 20.4437806,15.3296585 20.6348991,15.6845928 Z" id="path-9"></path>
        <filter x="-30.2%" y="-40.4%" width="162.6%" height="217.5%" filterUnits="objectBoundingBox" id="filter-10">
            <feOffset dx="0" dy="5" in="SourceAlpha" result="shadowOffsetOuter1"></feOffset>
            <feGaussianBlur stdDeviation="4.5" in="shadowOffsetOuter1" result="shadowBlurOuter1"></feGaussianBlur>
            <feColorMatrix values="0 0 0 0 0   0 0 0 0 0   0 0 0 0 0  0 0 0 0.106544384 0" type="matrix" in="shadowBlurOuter1"></feColorMatrix>
        </filter>
        <circle id="path-11" cx="36.5384615" cy="13.9230769" r="3.07692308"></circle>
        <filter x="-260.0%" y="-178.7%" width="620.0%" height="620.0%" filterUnits="objectBoundingBox" id="filter-12">
            <feOffset dx="0" dy="5" in="SourceAlpha" result="shadowOffsetOuter1"></feOffset>
            <feGaussianBlur stdDeviation="4.5" in="shadowOffsetOuter1" result="shadowBlurOuter1"></feGaussianBlur>
            <feColorMatrix values="0 0 0 0 0   0 0 0 0 0   0 0 0 0 0  0 0 0 0.106544384 0" type="matrix" in="shadowBlurOuter1"></feColorMatrix>
        </filter>
    </defs>
    <g id="widget/ImagePopin" stroke="none" stroke-width="1" fill="none" fill-rule="evenodd">
        <g id="Group-4" transform="translate(-23.000000, -22.000000)">
            <rect id="Rectangle" fill-opacity="0" fill="#D8D8D8" fill-rule="nonzero" x="0" y="0" width="160" height="160"></rect>
            <path d="M108.777029,142.281519 C138.141615,142.281519 160.328795,56.2141891 140.545348,59.9040719 C120.761901,63.5939548 114.718694,62.9013924 114.591282,52.4618633 C114.463871,42.0223343 133.486342,21.6661345 108.777029,21.6661345 C97.6498503,21.6661345 92.885312,55.6004715 74.0631269,59.5659917 C55.2409419,63.5315119 28.7545666,64.4182644 28.7545666,82.7851411 C28.7545666,97.5274219 59.6728982,99.9119718 75.9370836,111.078012 C92.2988904,122.311074 94.0508043,142.281519 108.777029,142.281519 Z" id="Oval" fill="#E6F9F9" transform="translate(88.416544, 81.973827) scale(-1, 1) rotate(74.000000) translate(-88.416544, -81.973827) "></path>
            <g id="Modal" transform="translate(31.000000, 32.230769)">
                <g id="Rectangle">
                    <use fill="black" fill-opacity="1" filter="url(#filter-2)" xlink:href="#path-1"></use>
                    <use fill="#FFFFFF" fill-rule="evenodd" xlink:href="#path-1"></use>
                </g>
                <g id="gradient/Background" transform="translate(0.000000, 0.769231)">
                    <mask id="mask-4" fill="white">
                        <use xlink:href="#path-3"></use>
                    </mask>
                    <use id="Mask" fill="#2F9BC8" xlink:href="#path-3"></use>
                    <g id="gradient/Background-Blue" mask="url(#mask-4)" fill="url(#linearGradient-5)">
                        <g transform="translate(-8.000000, 0.000000)" id="gradient/Background">
                            <rect x="0" y="0" width="120" height="19"></rect>
                        </g>
                    </g>
                </g>
                <ellipse id="Oval" fill="#217981" cx="8.52071006" cy="9.53846154" rx="2.84023669" ry="2.84615385"></ellipse>
                <ellipse id="Oval-Copy-2" fill="#217981" cx="16.0946746" cy="9.53846154" rx="2.84023669" ry="2.84615385"></ellipse>
                <ellipse id="Oval-Copy-3" fill="#217981" cx="23.6686391" cy="9.53846154" rx="2.84023669" ry="2.84615385"></ellipse>
            </g>
            <g id="Group-5" transform="translate(48.000000, 57.000000)">
                <g id="Group-2" transform="translate(30.773415, 27.520219) rotate(-15.000000) translate(-30.773415, -27.520219) translate(5.273415, 6.520219)">
                    <g id="gradient/Background" transform="translate(0.146499, 0.697845)">
                        <mask id="mask-7" fill="white">
                            <use xlink:href="#path-6"></use>
                        </mask>
                        <use id="Mask" fill="#1280AC" xlink:href="#path-6"></use>
                        <g id="gradient/Background-Green" mask="url(#mask-7)">
                            <g transform="translate(-24.000000, -11.000000)" id="gradient/Ready">
                                <g>
                                    <polygon fill="url(#linearGradient-8)" transform="translate(60.000000, 31.500000) rotate(-90.000000) translate(-60.000000, -31.500000) " points="28.5 -28.5 91.5 -28.5 91.5 91.5 28.5 91.5"></polygon>
                                </g>
                            </g>
                        </g>
                    </g>
                    <g id="Path-4">
                        <use fill="black" fill-opacity="1" filter="url(#filter-10)" xlink:href="#path-9"></use>
                        <use fill="#FFFFFF" fill-rule="evenodd" xlink:href="#path-9"></use>
                    </g>
                    <g id="Oval">
                        <use fill="black" fill-opacity="1" filter="url(#filter-12)" xlink:href="#path-11"></use>
                        <use fill="#FFFFFF" fill-rule="evenodd" xlink:href="#path-11"></use>
                    </g>
                </g>
            </g>
        </g>
    </g>
</svg>