<?xml version="1.0" encoding="UTF-8"?>
<svg width="120px" height="120px" viewBox="0 0 120 120" version="1.1" xmlns="http://www.w3.org/2000/svg" xmlns:xlink="http://www.w3.org/1999/xlink">
    <!-- Generator: Sketch 58 (84663) - https://sketch.com -->
    <title>widget/ResponsiveSharingButtons</title>
    <desc>Created with Sketch.</desc>
    <defs>
        <path d="M82.9079507,111 C107.827065,111 109,82.8746625 109,60.6860987 C109,38.4975348 107.827065,9 82.9079507,9 C57.9888364,9 15,35.6772583 15,60.6860987 C15,85.694939 57.9888364,111 82.9079507,111 Z" id="path-1"></path>
        <linearGradient x1="100%" y1="50%" x2="0%" y2="50%" id="linearGradient-3">
            <stop stop-color="#B0EBD9" offset="0%"></stop>
            <stop stop-color="#4DDBB8" offset="100%"></stop>
        </linearGradient>
        <circle id="path-4" cx="18.5" cy="18.5" r="18.5"></circle>
        <filter x="-29.7%" y="-18.9%" width="159.5%" height="159.5%" filterUnits="objectBoundingBox" id="filter-6">
            <feOffset dx="0" dy="4" in="SourceAlpha" result="shadowOffsetOuter1"></feOffset>
            <feGaussianBlur stdDeviation="3" in="shadowOffsetOuter1" result="shadowBlurOuter1"></feGaussianBlur>
            <feColorMatrix values="0 0 0 0 0   0 0 0 0 0   0 0 0 0 0  0 0 0 0.11 0" type="matrix" in="shadowBlurOuter1"></feColorMatrix>
        </filter>
        <linearGradient x1="50%" y1="0%" x2="50%" y2="100%" id="linearGradient-7">
            <stop stop-color="#009CB2" offset="0%"></stop>
            <stop stop-color="#217981" offset="100%"></stop>
        </linearGradient>
        <ellipse id="path-8" cx="18" cy="18.5" rx="18" ry="18.5"></ellipse>
        <filter x="-30.6%" y="-18.9%" width="161.1%" height="159.5%" filterUnits="objectBoundingBox" id="filter-10">
            <feOffset dx="0" dy="4" in="SourceAlpha" result="shadowOffsetOuter1"></feOffset>
            <feGaussianBlur stdDeviation="3" in="shadowOffsetOuter1" result="shadowBlurOuter1"></feGaussianBlur>
            <feColorMatrix values="0 0 0 0 0   0 0 0 0 0   0 0 0 0 0  0 0 0 0.11 0" type="matrix" in="shadowBlurOuter1"></feColorMatrix>
        </filter>
        <linearGradient x1="50%" y1="0%" x2="50%" y2="100%" id="linearGradient-11">
            <stop stop-color="#009CB2" offset="0%"></stop>
            <stop stop-color="#217981" offset="100%"></stop>
        </linearGradient>
        <circle id="path-12" cx="18.5" cy="18.5" r="18.5"></circle>
        <filter x="-29.7%" y="-18.9%" width="159.5%" height="159.5%" filterUnits="objectBoundingBox" id="filter-14">
            <feOffset dx="0" dy="4" in="SourceAlpha" result="shadowOffsetOuter1"></feOffset>
            <feGaussianBlur stdDeviation="3" in="shadowOffsetOuter1" result="shadowBlurOuter1"></feGaussianBlur>
            <feColorMatrix values="0 0 0 0 0   0 0 0 0 0   0 0 0 0 0  0 0 0 0.11 0" type="matrix" in="shadowBlurOuter1"></feColorMatrix>
        </filter>
    </defs>
    <g id="widget/ResponsiveSharingButtons" stroke="none" stroke-width="1" fill="none" fill-rule="evenodd">
        <path d="M80.9079507,104 C105.827065,104 107,75.8746625 107,53.6860987 C107,31.4975348 105.827065,2 80.9079507,2 C55.9888364,2 13,28.6772583 13,53.6860987 C13,78.694939 55.9888364,104 80.9079507,104 Z" id="Oval" fill="#E6F9F9" transform="translate(60.000000, 53.000000) rotate(74.000000) translate(-60.000000, -53.000000) "></path>
        <g id="gradient/Background" transform="translate(57.000000, 59.000000) scale(-1, 1) rotate(65.000000) translate(-57.000000, -59.000000) translate(-5.000000, -1.000000)">
            <mask id="mask-2" fill="white">
                <use xlink:href="#path-1"></use>
            </mask>
            <use id="Mask" fill="#E3EFFD" transform="translate(62.000000, 60.000000) scale(-1, 1) rotate(74.000000) translate(-62.000000, -60.000000) " xlink:href="#path-1"></use>
            <g id="gradient/Background-Green" mask="url(#mask-2)">
                <g transform="translate(0.020698, 0.763195)" id="gradient/Ready">
                    <g>
                        <polygon fill="url(#linearGradient-3)" transform="translate(60.000000, 60.000000) rotate(-90.000000) translate(-60.000000, -60.000000) " points="0 3.50615531e-15 120 -1.16976883e-15 120 120 -1.33226763e-14 120"></polygon>
                    </g>
                </g>
            </g>
        </g>
        <g id="gradient/Background" transform="translate(0.000000, 42.000000)">
            <mask id="mask-5" fill="white">
                <use xlink:href="#path-4"></use>
            </mask>
            <g id="Mask">
                <use fill="black" fill-opacity="1" filter="url(#filter-6)" xlink:href="#path-4"></use>
                <use fill="#FFFFFF" fill-rule="evenodd" xlink:href="#path-4"></use>
            </g>
            <g id="gradient/Background-Blue" mask="url(#mask-5)" fill="url(#linearGradient-7)">
                <rect id="gradient/Background" x="0" y="0" width="37" height="37"></rect>
            </g>
            <g id="Facebook/White" mask="url(#mask-5)">
                <g transform="translate(9.000000, 10.000000)">
                    <g>
                        <path d="M9.61438322,18 L0.993461821,18 C0.444627246,18 0,17.5550968 0,17.006476 L0,0.993454111 C0,0.444693639 0.44469709,0 0.993461821,0 L17.006608,0 C17.5552331,0 18,0.444693639 18,0.993454111 L18,17.006476 C18,17.5551667 17.5551632,18 17.006608,18 L12.4197395,18 L12.4197395,11.029408 L14.7594454,11.029408 L15.1097832,8.31284461 L12.4197395,8.31284461 L12.4197395,6.57849053 C12.4197395,5.79198274 12.6381418,5.25600363 13.7659836,5.25600363 L15.2044917,5.25537504 L15.2044917,2.82565895 C14.9557072,2.79255313 14.1017938,2.71858885 13.108332,2.71858885 C11.0343128,2.71858885 9.61438322,3.98457234 9.61438322,6.30945332 L9.61438322,8.31284461 L7.26867067,8.31284461 L7.26867067,11.029408 L9.61438322,11.029408 L9.61438322,18 L9.61438322,18 Z" id="Facebook" fill="#FFFFFF"></path>
                    </g>
                </g>
            </g>
        </g>
        <g id="gradient/Background" transform="translate(42.000000, 42.000000)">
            <mask id="mask-9" fill="white">
                <use xlink:href="#path-8"></use>
            </mask>
            <g id="Mask">
                <use fill="black" fill-opacity="1" filter="url(#filter-10)" xlink:href="#path-8"></use>
                <use fill="#FFFFFF" fill-rule="evenodd" xlink:href="#path-8"></use>
            </g>
            <g id="gradient/Background-Blue" mask="url(#mask-9)" fill="url(#linearGradient-11)">
                <rect id="gradient/Background" x="0" y="0" width="36" height="37"></rect>
            </g>
            <g id="Twitter/White" mask="url(#mask-9)">
                <g transform="translate(8.000000, 10.000000)">
                    <g>
                        <path d="M22,2.13087757 C21.1916417,2.49230769 20.3213007,2.73672806 19.4083465,2.84593716 C20.3406703,2.28429036 21.0560545,1.39371614 21.3930856,0.332827736 C20.520162,0.852871073 19.5555556,1.2312026 18.5250924,1.4340195 C17.7038211,0.551245937 16.5300229,0 15.2309679,0 C12.7400364,0 10.7191407,2.03466956 10.7191407,4.54387866 C10.7191407,4.90010834 10.7578799,5.24593716 10.8353583,5.5787649 C7.08411105,5.38894908 3.75899513,3.58179848 1.53149029,0.829469122 C1.14280683,1.50292524 0.920702002,2.28429036 0.920702002,3.1163597 C0.920702002,4.69209101 1.71743852,6.08320693 2.92868463,6.89837486 C2.19005693,6.87627302 1.49275107,6.6695558 0.883254094,6.33152763 L0.883254094,6.38743229 C0.883254094,8.58981582 2.43927922,10.4268689 4.50537066,10.8429036 C4.12701767,10.9495125 3.72800376,11.0028169 3.31607677,11.0028169 C3.02553266,11.0028169 2.74144509,10.9755146 2.46639667,10.9222102 C3.04102835,12.7267606 4.70681458,14.0411701 6.68251453,14.076273 C5.13811117,15.2957746 3.19081998,16.0225352 1.07695017,16.0225352 C0.71280155,16.0225352 0.352526853,16.0017335 0,15.96013 C1.99765217,17.2472373 4.37107472,18 6.91882374,18 C15.2219287,18 19.7608734,11.0769231 19.7608734,5.07172264 C19.7608734,4.87410618 19.7569995,4.67648971 19.7492516,4.48277356 C20.6312144,3.84182015 21.3969596,3.04225352 22,2.13087757" id="Twitter" fill="#FFFFFF"></path>
                    </g>
                </g>
            </g>
        </g>
        <g id="gradient/Background" transform="translate(83.000000, 42.000000)">
            <mask id="mask-13" fill="white">
                <use xlink:href="#path-12"></use>
            </mask>
            <g id="Mask">
                <use fill="black" fill-opacity="1" filter="url(#filter-14)" xlink:href="#path-12"></use>
                <use fill="#FFFFFF" fill-rule="evenodd" xlink:href="#path-12"></use>
            </g>
            <g id="gradient/Background-Blue" mask="url(#mask-13)" fill="url(#linearGradient-7)">
                <rect id="gradient/Background" x="0" y="0" width="37" height="37"></rect>
            </g>
            <g id="Pinterest/White" mask="url(#mask-13)">
                <g transform="translate(10.000000, 10.000000)">
                    <g>
                        <path d="M9.00052919,0 C4.03034045,0 0,4.02928206 0,9.00052919 C0,12.6847769 2.21626389,15.8514729 5.3882519,17.2432528 C5.36285059,16.6156289 5.38401835,15.85994 5.54383489,15.1762216 C5.71741048,14.445934 6.70171106,10.2727112 6.70171106,10.2727112 C6.70171106,10.2727112 6.41488799,9.6980067 6.41488799,8.84812136 C6.41488799,7.51455283 7.18856941,6.51860998 8.15064385,6.51860998 C8.96877756,6.51860998 9.36461457,7.13353325 9.36461457,7.87017111 C9.36461457,8.69253837 8.83965426,9.92344329 8.56976539,11.0633269 C8.34432881,12.019051 9.04815664,12.796966 9.99012171,12.796966 C11.6951843,12.796966 12.843535,10.6071618 12.843535,8.01199506 C12.843535,6.04021873 11.5152584,4.56376786 9.09895925,4.56376786 C6.36937732,4.56376786 4.66854824,6.59904745 4.66854824,8.87246428 C4.66854824,9.65778797 4.89927677,10.2102664 5.26124537,10.637855 C5.42847063,10.8357735 5.45069677,10.9140942 5.39036867,11.1405892 C5.34803316,11.3046393 5.24854472,11.7047098 5.2072676,11.8624096 C5.1469395,12.089963 4.96278003,12.1725172 4.75745281,12.0878462 C3.49902981,11.5745281 2.9137414,10.1975657 2.9137414,8.64914447 C2.9137414,6.09313812 5.06967719,3.0259305 9.34556359,3.0259305 C12.7821485,3.0259305 15.0439231,5.51420004 15.0439231,8.18239548 C15.0439231,11.7131769 13.0816723,14.3506791 10.1869818,14.3506791 C9.21644029,14.3506791 8.3019933,13.8257188 7.98871053,13.2298465 C7.98871053,13.2298465 7.465867,15.3032281 7.35579467,15.7032986 C7.16528488,16.3965426 6.79167402,17.0908449 6.44981478,17.6306227 C7.25948139,17.8698183 8.11465867,18 9.00052919,18 C13.9707179,18 18,13.9707179 18,9.00052919 C18,4.02928206 13.9707179,0 9.00052919,0" id="Pinterest" fill="#FFFFFF"></path>
                    </g>
                </g>
            </g>
        </g>
    </g>
</svg>