<?xml version="1.0" encoding="UTF-8"?>
<svg width="120px" height="120px" viewBox="0 0 120 120" version="1.1" xmlns="http://www.w3.org/2000/svg" xmlns:xlink="http://www.w3.org/1999/xlink">
    <!-- Generator: Sketch 58 (84663) - https://sketch.com -->
    <title>widget/SnowflakeEffect</title>
    <desc>Created with Sketch.</desc>
    <defs>
        <rect id="path-1" x="0.468312754" y="0.323700618" width="104.615385" height="76.5729857" rx="6.03076935"></rect>
        <filter x="-10.5%" y="-9.1%" width="121.0%" height="128.7%" filterUnits="objectBoundingBox" id="filter-3">
            <feOffset dx="0" dy="4" in="SourceAlpha" result="shadowOffsetOuter1"></feOffset>
            <feGaussianBlur stdDeviation="3" in="shadowOffsetOuter1" result="shadowBlurOuter1"></feGaussianBlur>
            <feColorMatrix values="0 0 0 0 0   0 0 0 0 0   0 0 0 0 0  0 0 0 0.106544384 0" type="matrix" in="shadowBlurOuter1"></feColorMatrix>
        </filter>
        <linearGradient x1="50%" y1="0%" x2="50%" y2="100%" id="linearGradient-4">
            <stop stop-color="#009CB2" offset="0%"></stop>
            <stop stop-color="#217981" offset="100%"></stop>
        </linearGradient>
        <circle id="path-5" cx="21" cy="21" r="21"></circle>
    </defs>
    <g id="widget/SnowflakeEffect" stroke="none" stroke-width="1" fill="none" fill-rule="evenodd">
        <path d="M85.7770289,120.281519 C115.141615,120.281519 137.328795,34.2141891 117.545348,37.9040719 C97.7619011,41.5939548 91.7186936,40.9013924 91.5912821,30.4618633 C91.4638706,20.0223343 110.486342,-0.333865452 85.7770289,-0.333865452 C74.6498503,-0.333865452 69.885312,33.6004715 51.0631269,37.5659917 C32.2409419,41.5315119 5.75456655,42.4182644 5.75456655,60.7851411 C5.75456655,75.5274219 36.6728982,77.9119718 52.9370836,89.0780125 C69.2988904,100.311074 71.0508043,120.281519 85.7770289,120.281519 Z" id="Oval" fill="#E6F9F9" transform="translate(65.416544, 59.973827) scale(-1, 1) rotate(74.000000) translate(-65.416544, -59.973827) "></path>
        <g id="Group" transform="translate(7.000000, 21.000000)">
            <g id="gradient/Background" transform="translate(0.531687, 0.676299)">
                <mask id="mask-2" fill="white">
                    <use xlink:href="#path-1"></use>
                </mask>
                <g id="Mask">
                    <use fill="black" fill-opacity="1" filter="url(#filter-3)" xlink:href="#path-1"></use>
                    <use fill="#117EA9" fill-rule="evenodd" xlink:href="#path-1"></use>
                </g>
                <g id="gradient/Background-Blue" mask="url(#mask-2)" fill="url(#linearGradient-4)">
                    <g transform="translate(-7.000000, 0.000000)" id="gradient/Background">
                        <rect x="0" y="0" width="120" height="81"></rect>
                    </g>
                </g>
            </g>
        </g>
        <g id="FLAKES" transform="translate(30.000000, 38.000000)" fill="#FFFFFF">
            <g id="LEFT-DOWN" transform="translate(0.000000, 25.000000)">
                <path d="M22.2733016,2.9734997 C22.2733016,4.44959391 21.0569107,5.64729649 19.5577843,5.64729649 C18.058658,5.64729649 16.8422671,4.44959391 16.8422671,2.9734997 C16.8422671,1.4974055 18.058658,0.299702911 19.5577843,0.299702911 C21.0569107,0.299702911 22.2733016,1.4974055 22.2733016,2.9734997" id="Fill-2"></path>
                <path d="M26.6181292,15.8071055 C26.6181292,17.2847789 25.4027137,18.4815211 23.9032404,18.4815211 C22.4025102,18.4815211 21.1870947,17.2847789 21.1870947,15.8071055 C21.1870947,14.3306697 22.4025102,13.1339275 23.9032404,13.1339275 C25.4027137,13.1339275 26.6181292,14.3306697 26.6181292,15.8071055" id="Fill-3"></path>
                <path d="M5.98019812,4.04301842 C5.98019812,5.51911262 4.76380724,6.71681521 3.26468088,6.71681521 C1.76555452,6.71681521 0.549163636,5.51911262 0.549163636,4.04301842 C0.549163636,2.56692422 1.76555452,1.36922163 3.26468088,1.36922163 C4.76380724,1.36922163 5.98019812,2.56692422 5.98019812,4.04301842" id="Fill-6"></path>
                <path d="M11.4112326,16.8766242 C11.4112326,18.35306 10.1958171,19.5510398 8.69508691,19.5510398 C7.19561361,19.5510398 5.98019812,18.35306 5.98019812,16.8766242 C5.98019812,15.4001884 7.19561361,14.2034462 8.69508691,14.2034462 C10.1958171,14.2034462 11.4112326,15.4001884 11.4112326,16.8766242" id="Fill-7"></path>
            </g>
            <g id="LEFT-UP" transform="translate(1.000000, 0.000000)">
                <path d="M22.2733016,2.9734997 C22.2733016,4.44959391 21.0569107,5.64729649 19.5577843,5.64729649 C18.058658,5.64729649 16.8422671,4.44959391 16.8422671,2.9734997 C16.8422671,1.4974055 18.058658,0.299702911 19.5577843,0.299702911 C21.0569107,0.299702911 22.2733016,1.4974055 22.2733016,2.9734997" id="Fill-2"></path>
                <path d="M26.6181292,15.8071055 C26.6181292,17.2847789 25.4027137,18.4815211 23.9032404,18.4815211 C22.4025102,18.4815211 21.1870947,17.2847789 21.1870947,15.8071055 C21.1870947,14.3306697 22.4025102,13.1339275 23.9032404,13.1339275 C25.4027137,13.1339275 26.6181292,14.3306697 26.6181292,15.8071055" id="Fill-3"></path>
                <path d="M5.98019812,4.04301842 C5.98019812,5.51911262 4.76380724,6.71681521 3.26468088,6.71681521 C1.76555452,6.71681521 0.549163636,5.51911262 0.549163636,4.04301842 C0.549163636,2.56692422 1.76555452,1.36922163 3.26468088,1.36922163 C4.76380724,1.36922163 5.98019812,2.56692422 5.98019812,4.04301842" id="Fill-6"></path>
                <path d="M11.4112326,16.8766242 C11.4112326,18.35306 10.1958171,19.5510398 8.69508691,19.5510398 C7.19561361,19.5510398 5.98019812,18.35306 5.98019812,16.8766242 C5.98019812,15.4001884 7.19561361,14.2034462 8.69508691,14.2034462 C10.1958171,14.2034462 11.4112326,15.4001884 11.4112326,16.8766242" id="Fill-7"></path>
            </g>
            <g id="RIGHT-DOWN" transform="translate(31.000000, 25.000000)">
                <path d="M6.13346853,2.95934018 C6.13346853,4.42840536 4.88171098,5.62040461 3.33899738,5.62040461 C1.79628378,5.62040461 0.544526224,4.42840536 0.544526224,2.95934018 C0.544526224,1.490275 1.79628378,0.298275755 3.33899738,0.298275755 C4.88171098,0.298275755 6.13346853,1.490275 6.13346853,2.95934018" id="Fill-2"></path>
                <path d="M11.7224108,15.7318336 C11.7224108,17.2024704 10.471657,18.3935138 8.9285864,18.3935138 C7.38422234,18.3935138 6.13346853,17.2024704 6.13346853,15.7318336 C6.13346853,14.2624284 7.38422234,13.071385 8.9285864,13.071385 C10.471657,13.071385 11.7224108,14.2624284 11.7224108,15.7318336" id="Fill-3"></path>
                <path d="M24.1358724,2.95934018 C24.1358724,4.42840536 22.8851186,5.62040461 21.3407545,5.62040461 C19.7976839,5.62040461 18.5469301,4.42840536 18.5469301,2.95934018 C18.5469301,1.490275 19.7976839,0.298275755 21.3407545,0.298275755 C22.8851186,0.298275755 24.1358724,1.490275 24.1358724,2.95934018" id="Fill-4"></path>
                <path d="M29.6070262,15.7318336 C29.6070262,17.2024704 28.3562724,18.3935138 26.8119084,18.3935138 C25.2688377,18.3935138 24.0180839,17.2024704 24.0180839,15.7318336 C24.0180839,14.2624284 25.2688377,13.071385 26.8119084,13.071385 C28.3562724,13.071385 29.6070262,14.2624284 29.6070262,15.7318336" id="Fill-5"></path>
            </g>
            <g id="RIGHT-UP" transform="translate(32.000000, 0.000000)">
                <path d="M6.13346853,2.95934018 C6.13346853,4.42840536 4.88171098,5.62040461 3.33899738,5.62040461 C1.79628378,5.62040461 0.544526224,4.42840536 0.544526224,2.95934018 C0.544526224,1.490275 1.79628378,0.298275755 3.33899738,0.298275755 C4.88171098,0.298275755 6.13346853,1.490275 6.13346853,2.95934018" id="Fill-2"></path>
                <path d="M11.7224108,15.7318336 C11.7224108,17.2024704 10.471657,18.3935138 8.9285864,18.3935138 C7.38422234,18.3935138 6.13346853,17.2024704 6.13346853,15.7318336 C6.13346853,14.2624284 7.38422234,13.071385 8.9285864,13.071385 C10.471657,13.071385 11.7224108,14.2624284 11.7224108,15.7318336" id="Fill-3"></path>
                <path d="M23.1358724,2.95934018 C23.1358724,4.42840536 21.8851186,5.62040461 20.3407545,5.62040461 C18.7976839,5.62040461 17.5469301,4.42840536 17.5469301,2.95934018 C17.5469301,1.490275 18.7976839,0.298275755 20.3407545,0.298275755 C21.8851186,0.298275755 23.1358724,1.490275 23.1358724,2.95934018" id="Fill-4"></path>
                <path d="M27.6070262,15.7318336 C27.6070262,17.2024704 26.3562724,18.3935138 24.8119084,18.3935138 C23.2688377,18.3935138 22.0180839,17.2024704 22.0180839,15.7318336 C22.0180839,14.2624284 23.2688377,13.071385 24.8119084,13.071385 C26.3562724,13.071385 27.6070262,14.2624284 27.6070262,15.7318336" id="Fill-5"></path>
            </g>
        </g>
        <g id="FLOCO" transform="translate(78.000000, 69.000000)">
            <g id="gradient/Background">
                <mask id="mask-6" fill="white">
                    <use xlink:href="#path-5"></use>
                </mask>
                <use id="Mask" fill="#FFFFFF" xlink:href="#path-5"></use>
            </g>
            <polygon id="Fill-1" fill="#4DDBB8" points="23.6735195 21.2270723 27.6972681 18.9213817 33.8577934 19.7970223 34.1659176 17.6603413 30.7472234 17.1735987 36.5480926 13.8494294 35.461699 11.9805693 29.6566731 15.3073933 30.9444548 12.1192326 28.9297392 11.3182226 26.6142248 17.0506179 22.6944754 19.2967142 22.6944754 14.7469309 26.5402179 9.88709912 24.8328975 8.5546357 22.6944754 11.2572449 22.6944754 4.6 20.525094 4.6 20.525094 11.2574982 18.3858159 8.55456633 16.679434 9.88720327 20.525094 14.7469309 20.525094 19.4225332 16.3857529 17.0506052 14.0694134 11.3180583 12.0548631 12.1201484 13.3424559 15.3072486 7.53831073 11.9805525 6.45190736 13.8494294 12.2527364 17.1735757 8.83313755 17.6603618 9.14241818 19.7969992 15.302018 18.9213816 19.3263871 21.2270723 15.3012788 23.5334439 9.14238908 22.6578186 8.83315805 24.7952619 12.2524573 25.2814132 6.45190736 28.6053996 7.53830097 30.4742597 13.3430643 27.1475861 12.0547528 30.3355723 14.0695289 31.1366063 16.3850379 25.4042245 20.525094 23.0322441 20.525094 27.686239 16.6791908 32.5477844 18.3868444 33.878214 20.525094 31.1764161 20.525094 37.4 22.6944754 37.4 22.6944754 31.1764161 24.8327251 33.878214 26.5404027 32.5477657 22.6944754 27.6869452 22.6944754 23.1581147 26.6142248 25.404211 28.9297392 31.1366063 30.9444548 30.3355964 29.6566731 27.1474356 35.461699 30.4742597 36.5480926 28.6053996 30.7475025 25.2813902 34.1658972 24.7952823 33.8578224 22.6577955 27.6980073 23.5334438"></polygon>
        </g>
    </g>
</svg>