<?xml version="1.0" encoding="UTF-8"?>
<svg width="120px" height="120px" viewBox="0 0 120 120" version="1.1" xmlns="http://www.w3.org/2000/svg" xmlns:xlink="http://www.w3.org/1999/xlink">
    <!-- Generator: Sketch 62 (91390) - https://sketch.com -->
    <title>SocialProof</title>
    <desc>Created with Sketch.</desc>
    <defs>
        <rect id="path-1" x="0.468312754" y="0.323700618" width="104.615385" height="76.5729857" rx="6.03076935"></rect>
        <filter x="-10.5%" y="-9.1%" width="121.0%" height="128.7%" filterUnits="objectBoundingBox" id="filter-3">
            <feOffset dx="0" dy="4" in="SourceAlpha" result="shadowOffsetOuter1"></feOffset>
            <feGaussianBlur stdDeviation="3" in="shadowOffsetOuter1" result="shadowBlurOuter1"></feGaussianBlur>
            <feColorMatrix values="0 0 0 0 0   0 0 0 0 0   0 0 0 0 0  0 0 0 0.106544384 0" type="matrix" in="shadowBlurOuter1"></feColorMatrix>
        </filter>
        <linearGradient x1="50%" y1="0%" x2="50%" y2="100%" id="linearGradient-4">
            <stop stop-color="#009CB2" offset="0%"></stop>
            <stop stop-color="#217981" offset="100%"></stop>
        </linearGradient>
        <rect id="path-5" x="0" y="0" width="91" height="16" rx="3.69230769"></rect>
        <filter x="-12.1%" y="-43.8%" width="124.2%" height="237.5%" filterUnits="objectBoundingBox" id="filter-6">
            <feOffset dx="0" dy="4" in="SourceAlpha" result="shadowOffsetOuter1"></feOffset>
            <feGaussianBlur stdDeviation="3" in="shadowOffsetOuter1" result="shadowBlurOuter1"></feGaussianBlur>
            <feColorMatrix values="0 0 0 0 0   0 0 0 0 0   0 0 0 0 0  0 0 0 0.106544384 0" type="matrix" in="shadowBlurOuter1"></feColorMatrix>
        </filter>
        <rect id="path-7" x="0" y="0" width="67" height="4" rx="2"></rect>
        <filter x="-16.4%" y="-175.0%" width="132.8%" height="650.0%" filterUnits="objectBoundingBox" id="filter-9">
            <feOffset dx="0" dy="4" in="SourceAlpha" result="shadowOffsetOuter1"></feOffset>
            <feGaussianBlur stdDeviation="3" in="shadowOffsetOuter1" result="shadowBlurOuter1"></feGaussianBlur>
            <feColorMatrix values="0 0 0 0 0   0 0 0 0 0   0 0 0 0 0  0 0 0 0.106544384 0" type="matrix" in="shadowBlurOuter1"></feColorMatrix>
        </filter>
        <linearGradient x1="50.1370451%" y1="0%" x2="49.9530137%" y2="67.1426309%" id="linearGradient-10">
            <stop stop-color="#B0EBD9" offset="0%"></stop>
            <stop stop-color="#4DDBB8" offset="100%"></stop>
        </linearGradient>
        <path d="M18.5,37 C19.8962766,37 23,41 24,41 C25,41 25.0586351,35.8509056 26.2166784,35.3187038 C32.5809138,32.3938935 37,25.9630132 37,18.5 C37,8.28273213 28.7172679,0 18.5,0 C8.28273213,0 0,8.28273213 0,18.5 C0,28.7172679 8.28273213,37 18.5,37 Z" id="path-11"></path>
        <filter x="-29.7%" y="-17.1%" width="159.5%" height="153.7%" filterUnits="objectBoundingBox" id="filter-13">
            <feOffset dx="0" dy="4" in="SourceAlpha" result="shadowOffsetOuter1"></feOffset>
            <feGaussianBlur stdDeviation="3" in="shadowOffsetOuter1" result="shadowBlurOuter1"></feGaussianBlur>
            <feColorMatrix values="0 0 0 0 0   0 0 0 0 0   0 0 0 0 0  0 0 0 0.11 0" type="matrix" in="shadowBlurOuter1"></feColorMatrix>
        </filter>
        <linearGradient x1="100%" y1="11.1961451%" x2="32.8573691%" y2="63.3040032%" id="linearGradient-14">
            <stop stop-color="#B0EBD9" offset="0%"></stop>
            <stop stop-color="#4DDBB8" offset="100%"></stop>
        </linearGradient>
        <path d="M17.2533152,17.9048267 C17.7280031,17.2385966 17.6750318,16.5369335 17.3458807,15.2747753 C16.6949138,12.7785862 16.9541263,11.4104116 19.1982403,9.7906 L20.2935507,9 L20.5584711,10.324602 C20.8400169,11.7323311 21.3023783,12.6030116 22.4895566,14.277781 C22.5367236,14.3443045 22.5367236,14.3443045 22.5840994,14.4111256 C24.2941639,16.8237031 24.9187706,18.2780625 24.9187706,20.9191978 C24.9187706,24.1232174 21.67975,27 17.9692823,27 C14.2586107,27 11.0197941,24.1236106 11.0197941,20.9191978 C11.0197941,20.8593046 11.0198554,20.8611198 11.0097073,20.5964379 C10.9312166,18.5492532 11.3097697,16.9470158 12.8414866,15.2170212 C13.1651134,14.8515016 13.5329752,14.5001946 13.9469421,14.1640411 L14.8607919,13.4219676 L15.3003845,14.5140082 C15.6252021,15.3209235 16.0057888,15.9552347 16.4357108,16.4207141 C16.799844,16.8149636 17.0699665,17.3107337 17.2533152,17.9048267 Z" id="path-15"></path>
        <linearGradient x1="42.3446865%" y1="-3.55271368e-13%" x2="65.0145932%" y2="100%" id="linearGradient-17">
            <stop stop-color="#8EE6CE" offset="0%"></stop>
            <stop stop-color="#4EDBB9" offset="100%"></stop>
        </linearGradient>
        <path d="M23.5,41 C24.8962766,41 28,45 29,45 C30,45 30.0586351,39.8509056 31.2166784,39.3187038 C37.5809138,36.3938935 42,29.9630132 42,22.5 C42,12.2827321 33.7172679,4 23.5,4 C13.2827321,4 5,12.2827321 5,22.5 C5,32.7172679 13.2827321,41 23.5,41 Z" id="path-18"></path>
        <filter x="-29.7%" y="-17.1%" width="159.5%" height="153.7%" filterUnits="objectBoundingBox" id="filter-20">
            <feOffset dx="0" dy="4" in="SourceAlpha" result="shadowOffsetOuter1"></feOffset>
            <feGaussianBlur stdDeviation="3" in="shadowOffsetOuter1" result="shadowBlurOuter1"></feGaussianBlur>
            <feColorMatrix values="0 0 0 0 0   0 0 0 0 0   0 0 0 0 0  0 0 0 0.11 0" type="matrix" in="shadowBlurOuter1"></feColorMatrix>
        </filter>
        <path d="M14.0077221,29.8759653 L14.4873319,26.0390871 C13.5243785,24.8351998 13,23.4506178 13,22 C13,17.4897993 17.9854276,14 24,14 C30.0145724,14 35,17.4897993 35,22 C35,26.5102007 30.0145724,30 24,30 C22.2297021,30 20.5178717,29.6982169 18.979858,29.128105 L15.4472136,30.8944272 C14.7328387,31.2516146 13.9086562,30.668493 14.0077221,29.8759653 Z" id="path-21"></path>
        <linearGradient x1="50%" y1="0%" x2="50%" y2="100%" id="linearGradient-23">
            <stop stop-color="#8FE6CE" offset="0%"></stop>
            <stop stop-color="#4DDBB8" offset="100%"></stop>
        </linearGradient>
        <path d="M18.5,37 C19.8962766,37 23,41 24,41 C25,41 25.0586351,35.8509056 26.2166784,35.3187038 C32.5809138,32.3938935 37,25.9630132 37,18.5 C37,8.28273213 28.7172679,0 18.5,0 C8.28273213,0 0,8.28273213 0,18.5 C0,28.7172679 8.28273213,37 18.5,37 Z" id="path-24"></path>
        <filter x="-29.7%" y="-17.1%" width="159.5%" height="153.7%" filterUnits="objectBoundingBox" id="filter-26">
            <feOffset dx="0" dy="4" in="SourceAlpha" result="shadowOffsetOuter1"></feOffset>
            <feGaussianBlur stdDeviation="3" in="shadowOffsetOuter1" result="shadowBlurOuter1"></feGaussianBlur>
            <feColorMatrix values="0 0 0 0 0   0 0 0 0 0   0 0 0 0 0  0 0 0 0.11 0" type="matrix" in="shadowBlurOuter1"></feColorMatrix>
        </filter>
        <path d="M23.05,11 C26.3333326,11 29,13.6337455 29,16.8888889 C29,18.2773968 28.5116673,19.5938954 27.5814937,20.7012255 C26.9613779,21.4394455 24.3385266,24.1061121 19.7129396,28.7012255 C19.321119,29.0995915 18.678881,29.0995915 18.2870604,28.7012255 C13.5892,24.0264437 10.9482802,21.3398599 10.3643012,20.6414741 C9.48833268,19.5938954 9,18.2773968 9,16.8888889 C9,13.6337455 11.6666674,11 14.95,11 C16.481873,11 17.9173431,11.5779154 19,12.5742032 C20.0826569,11.5779154 21.518127,11 23.05,11 Z" id="path-27"></path>
    </defs>
    <g id="SocialProof" stroke="none" stroke-width="1" fill="none" fill-rule="evenodd">
        <path d="M85.7770289,120.281519 C115.141615,120.281519 137.328795,34.2141891 117.545348,37.9040719 C97.7619011,41.5939548 91.7186936,40.9013924 91.5912821,30.4618633 C91.4638706,20.0223343 110.486342,-0.333865452 85.7770289,-0.333865452 C74.6498503,-0.333865452 69.885312,33.6004715 51.0631269,37.5659917 C32.2409419,41.5315119 5.75456655,42.4182644 5.75456655,60.7851411 C5.75456655,75.5274219 36.6728982,77.9119718 52.9370836,89.0780125 C69.2988904,100.311074 71.0508043,120.281519 85.7770289,120.281519 Z" id="Oval" fill="#E6F9F9" transform="translate(65.416544, 59.973827) scale(-1, 1) rotate(74.000000) translate(-65.416544, -59.973827) "></path>
        <g id="gradient/Background" transform="translate(7.000000, 22.000000)">
            <mask id="mask-2" fill="white">
                <use xlink:href="#path-1"></use>
            </mask>
            <g id="Mask">
                <use fill="black" fill-opacity="1" filter="url(#filter-3)" xlink:href="#path-1"></use>
                <use fill="#117EA9" fill-rule="evenodd" xlink:href="#path-1"></use>
            </g>
            <g id="gradient/Background-Blue" mask="url(#mask-2)" fill="url(#linearGradient-4)">
                <g transform="translate(-7.000000, 0.000000)" id="gradient/Background">
                    <rect x="0" y="0" width="120" height="81"></rect>
                </g>
            </g>
        </g>
        <g id="Group-2" transform="translate(15.000000, 70.000000)">
            <g id="Rectangle">
                <use fill="black" fill-opacity="1" filter="url(#filter-6)" xlink:href="#path-5"></use>
                <use fill="#FFFFFF" fill-rule="evenodd" xlink:href="#path-5"></use>
            </g>
            <g id="gradient/Background" transform="translate(12.000000, 6.000000)">
                <mask id="mask-8" fill="white">
                    <use xlink:href="#path-7"></use>
                </mask>
                <g id="Mask">
                    <use fill="black" fill-opacity="1" filter="url(#filter-9)" xlink:href="#path-7"></use>
                    <use fill="#2F9BC8" fill-rule="evenodd" xlink:href="#path-7"></use>
                </g>
                <g id="gradient/Background-Green" mask="url(#mask-8)">
                    <g transform="translate(-3.526316, 0.000000)" id="gradient/Ready">
                        <g>
                            <polygon fill="url(#linearGradient-10)" transform="translate(38.201754, 2.000000) rotate(-90.000000) translate(-38.201754, -2.000000) " points="36.2017544 -36.2017544 40.2017544 -36.2017544 40.2017544 40.2017544 36.2017544 40.2017544"></polygon>
                        </g>
                    </g>
                </g>
            </g>
        </g>
        <g id="gradient/Background" transform="translate(0.000000, 17.000000)">
            <mask id="mask-12" fill="white">
                <use xlink:href="#path-11"></use>
            </mask>
            <g id="Mask">
                <use fill="black" fill-opacity="1" filter="url(#filter-13)" xlink:href="#path-11"></use>
                <use fill="#FFFFFF" fill-rule="evenodd" xlink:href="#path-11"></use>
            </g>
            <g id="gradient/Background-Green" mask="url(#mask-12)" fill="url(#linearGradient-14)">
                <g id="gradient/Ready">
                    <polygon transform="translate(18.500000, 21.000000) rotate(-90.000000) translate(-18.500000, -21.000000) " points="-2.5 2.5 39.5 2.5 39.5 39.5 -2.5 39.5"></polygon>
                </g>
            </g>
            <mask id="mask-16" fill="white">
                <use xlink:href="#path-15"></use>
            </mask>
            <use id="Oval-12" fill="#FFFFFF" fill-rule="nonzero" xlink:href="#path-15"></use>
        </g>
        <g id="gradient/Background" transform="translate(36.000000, 13.000000)">
            <mask id="mask-19" fill="white">
                <use xlink:href="#path-18"></use>
            </mask>
            <g id="Mask" transform="translate(23.500000, 24.500000) rotate(14.000000) translate(-23.500000, -24.500000) ">
                <use fill="black" fill-opacity="1" filter="url(#filter-20)" xlink:href="#path-18"></use>
                <use fill="url(#linearGradient-17)" fill-rule="evenodd" xlink:href="#path-18"></use>
            </g>
            <mask id="mask-22" fill="white">
                <use xlink:href="#path-21"></use>
            </mask>
            <use id="Mask" fill="#FFFFFF" fill-rule="nonzero" xlink:href="#path-21"></use>
        </g>
        <g id="gradient/Background" transform="translate(83.000000, 17.000000)">
            <mask id="mask-25" fill="white">
                <use xlink:href="#path-24"></use>
            </mask>
            <g id="Mask" transform="translate(18.500000, 20.500000) scale(-1, 1) translate(-18.500000, -20.500000) ">
                <use fill="black" fill-opacity="1" filter="url(#filter-26)" xlink:href="#path-24"></use>
                <use fill="url(#linearGradient-23)" fill-rule="evenodd" xlink:href="#path-24"></use>
            </g>
            <mask id="mask-28" fill="white">
                <use xlink:href="#path-27"></use>
            </mask>
            <use id="Shape" fill="#FFFFFF" fill-rule="nonzero" xlink:href="#path-27"></use>
        </g>
    </g>
</svg>