<?xml version="1.0" encoding="UTF-8"?>
<svg width="120px" height="120px" viewBox="0 0 120 120" version="1.1" xmlns="http://www.w3.org/2000/svg" xmlns:xlink="http://www.w3.org/1999/xlink">
    <!-- Generator: Sketch 58 (84663) - https://sketch.com -->
    <title>widget/TriggerVisible</title>
    <desc>Created with Sketch.</desc>
    <defs>
        <rect id="path-1" x="0.468312754" y="0.323700618" width="104.615385" height="76.5729857" rx="6.03076935"></rect>
        <filter x="-10.5%" y="-9.1%" width="121.0%" height="128.7%" filterUnits="objectBoundingBox" id="filter-3">
            <feOffset dx="0" dy="4" in="SourceAlpha" result="shadowOffsetOuter1"></feOffset>
            <feGaussianBlur stdDeviation="3" in="shadowOffsetOuter1" result="shadowBlurOuter1"></feGaussianBlur>
            <feColorMatrix values="0 0 0 0 0   0 0 0 0 0   0 0 0 0 0  0 0 0 0.106544384 0" type="matrix" in="shadowBlurOuter1"></feColorMatrix>
        </filter>
        <linearGradient x1="50%" y1="0%" x2="50%" y2="100%" id="linearGradient-4">
            <stop stop-color="#009CB2" offset="0%"></stop>
            <stop stop-color="#217981" offset="100%"></stop>
        </linearGradient>
        <path d="M7.875,7.00021875 C6.909,7.00021875 6.125,6.21621875 6.125,5.25021875 C6.125,4.28421875 6.909,3.50021875 7.875,3.50021875 C8.841,3.50021875 9.625,4.28421875 9.625,5.25021875 C9.625,6.21621875 8.841,7.00021875 7.875,7.00021875 L7.875,7.00021875 Z M13.503,2.65059375 C10.4475,-0.88353125 5.3025,-0.88353125 2.247,2.65059375 L0,5.25021875 L2.247,7.84984375 C5.3025,11.3839687 10.4475,11.3839687 13.503,7.84984375 L15.75,5.25021875 L13.503,2.65059375 Z" id="path-5"></path>
        <circle id="path-7" cx="12" cy="12" r="12"></circle>
        <filter x="-45.8%" y="-29.2%" width="191.7%" height="191.7%" filterUnits="objectBoundingBox" id="filter-8">
            <feOffset dx="0" dy="4" in="SourceAlpha" result="shadowOffsetOuter1"></feOffset>
            <feGaussianBlur stdDeviation="3" in="shadowOffsetOuter1" result="shadowBlurOuter1"></feGaussianBlur>
            <feColorMatrix values="0 0 0 0 0   0 0 0 0 0   0 0 0 0 0  0 0 0 0.11 0" type="matrix" in="shadowBlurOuter1"></feColorMatrix>
        </filter>
    </defs>
    <g id="widget/TriggerVisible" stroke="none" stroke-width="1" fill="none" fill-rule="evenodd">
        <path d="M85.7770289,120.281519 C115.141615,120.281519 137.328795,34.2141891 117.545348,37.9040719 C97.7619011,41.5939548 91.7186936,40.9013924 91.5912821,30.4618633 C91.4638706,20.0223343 110.486342,-0.333865452 85.7770289,-0.333865452 C74.6498503,-0.333865452 69.885312,33.6004715 51.0631269,37.5659917 C32.2409419,41.5315119 5.75456655,42.4182644 5.75456655,60.7851411 C5.75456655,75.5274219 36.6728982,77.9119718 52.9370836,89.0780125 C69.2988904,100.311074 71.0508043,120.281519 85.7770289,120.281519 Z" id="Oval" fill="#E6F9F9" transform="translate(65.416544, 59.973827) scale(-1, 1) rotate(74.000000) translate(-65.416544, -59.973827) "></path>
        <g id="gradient/Background" transform="translate(7.531687, 21.676299)">
            <mask id="mask-2" fill="white">
                <use xlink:href="#path-1"></use>
            </mask>
            <g id="Mask">
                <use fill="black" fill-opacity="1" filter="url(#filter-3)" xlink:href="#path-1"></use>
                <use fill="#117EA9" fill-rule="evenodd" xlink:href="#path-1"></use>
            </g>
            <g id="gradient/Background-Blue" mask="url(#mask-2)" fill="url(#linearGradient-4)">
                <g transform="translate(-7.000000, 0.000000)" id="gradient/Background">
                    <rect x="0" y="0" width="120" height="81"></rect>
                </g>
            </g>
        </g>
        <g id="Group" transform="translate(14.000000, 30.000000)">
            <rect id="Rectangle" fill="#217981" x="0" y="0" width="93" height="20" rx="3.69230769"></rect>
            <rect id="Rectangle" fill="#217981" x="0" y="48" width="93" height="15" rx="3.69230769"></rect>
            <rect id="Rectangle" fill="#4DDBB8" x="0" y="24" width="44" height="20" rx="3.69230769"></rect>
            <rect id="Rectangle-Copy" fill="#217981" x="48" y="24" width="44" height="20" rx="3.69230769"></rect>
        </g>
        <g id="icon/Visible/On" transform="translate(25.000000, 54.000000)">
            <rect id="Rectangle-2" fill="#FFFFFF" opacity="0" x="0" y="0" width="21" height="21"></rect>
            <g id="colour/colourDarkGrey1" stroke-width="1" transform="translate(2.625000, 5.250000)">
                <mask id="mask-6" fill="white">
                    <use xlink:href="#path-5"></use>
                </mask>
                <use id="Mask" fill="#000000" xlink:href="#path-5"></use>
                <g id="colour/colourSecondary4" mask="url(#mask-6)" fill="#FFFFFF">
                    <g transform="translate(-2.625000, -5.250000)" id="colour/colourSecondary1-Copy">
                        <rect x="0" y="0" width="21" height="21"></rect>
                    </g>
                </g>
            </g>
        </g>
        <g id="icon/Check/Solid/16" transform="translate(96.000000, 80.000000)">
            <rect id="Rectangle" fill="#FFFFFF" opacity="0" x="0" y="0" width="24" height="24"></rect>
            <g id="Oval">
                <use fill="black" fill-opacity="1" filter="url(#filter-8)" xlink:href="#path-7"></use>
                <use fill="#FFFFFF" fill-rule="evenodd" xlink:href="#path-7"></use>
            </g>
            <polygon id="Fill-1" fill="#4DDBB8" points="16.4425029 8.379 11.1855 13.758 8.121 10.5 6 12.6225 11.1855 18 18.5635029 10.5"></polygon>
        </g>
    </g>
</svg>