<?xml version="1.0" encoding="UTF-8"?>
<svg width="120px" height="120px" viewBox="0 0 120 120" version="1.1" xmlns="http://www.w3.org/2000/svg" xmlns:xlink="http://www.w3.org/1999/xlink">
    <!-- Generator: Sketch 58 (84663) - https://sketch.com -->
    <title>widget/TriggerTime</title>
    <desc>Created with Sketch.</desc>
    <defs>
        <rect id="path-1" x="0.468312754" y="0.323700618" width="104.615385" height="76.5729857" rx="6.03076935"></rect>
        <filter x="-10.5%" y="-9.1%" width="121.0%" height="128.7%" filterUnits="objectBoundingBox" id="filter-3">
            <feOffset dx="0" dy="4" in="SourceAlpha" result="shadowOffsetOuter1"></feOffset>
            <feGaussianBlur stdDeviation="3" in="shadowOffsetOuter1" result="shadowBlurOuter1"></feGaussianBlur>
            <feColorMatrix values="0 0 0 0 0   0 0 0 0 0   0 0 0 0 0  0 0 0 0.106544384 0" type="matrix" in="shadowBlurOuter1"></feColorMatrix>
        </filter>
        <linearGradient x1="50%" y1="0%" x2="50%" y2="100%" id="linearGradient-4">
            <stop stop-color="#009CB2" offset="0%"></stop>
            <stop stop-color="#217981" offset="100%"></stop>
        </linearGradient>
        <path d="M12.8333333,0 C5.74566667,0 0,5.74566667 0,12.8333333 C0,19.921 5.74566667,25.6666667 12.8333333,25.6666667 C19.921,25.6666667 25.6666667,19.921 25.6666667,12.8333333 C25.6666667,5.74566667 19.921,0 12.8333333,0 L12.8333333,0 Z" id="path-5"></path>
        <path d="M20.1666667,13.75 L11.9166667,13.75 L11.9166667,5.5 L13.75,5.5 L13.75,11.9166667 L20.1666667,11.9166667 L20.1666667,13.75 Z M12.8333333,0 C5.74566667,0 0,5.74566667 0,12.8333333 C0,19.921 5.74566667,25.6666667 12.8333333,25.6666667 C19.921,25.6666667 25.6666667,19.921 25.6666667,12.8333333 C25.6666667,5.74566667 19.921,0 12.8333333,0 L12.8333333,0 Z" id="path-7"></path>
        <circle id="path-9" cx="12" cy="12" r="12"></circle>
        <filter x="-45.8%" y="-29.2%" width="191.7%" height="191.7%" filterUnits="objectBoundingBox" id="filter-10">
            <feOffset dx="0" dy="4" in="SourceAlpha" result="shadowOffsetOuter1"></feOffset>
            <feGaussianBlur stdDeviation="3" in="shadowOffsetOuter1" result="shadowBlurOuter1"></feGaussianBlur>
            <feColorMatrix values="0 0 0 0 0   0 0 0 0 0   0 0 0 0 0  0 0 0 0.11 0" type="matrix" in="shadowBlurOuter1"></feColorMatrix>
        </filter>
    </defs>
    <g id="widget/TriggerTime" stroke="none" stroke-width="1" fill="none" fill-rule="evenodd">
        <path d="M86.7770289,120.281519 C116.141615,120.281519 138.328795,34.2141891 118.545348,37.9040719 C98.7619011,41.5939548 92.7186936,40.9013924 92.5912821,30.4618633 C92.4638706,20.0223343 111.486342,-0.333865452 86.7770289,-0.333865452 C75.6498503,-0.333865452 70.885312,33.6004715 52.0631269,37.5659917 C33.2409419,41.5315119 6.75456655,42.4182644 6.75456655,60.7851411 C6.75456655,75.5274219 37.6728982,77.9119718 53.9370836,89.0780125 C70.2988904,100.311074 72.0508043,120.281519 86.7770289,120.281519 Z" id="Oval" fill="#E6F9F9" transform="translate(66.416544, 59.973827) scale(-1, 1) rotate(74.000000) translate(-66.416544, -59.973827) "></path>
        <g id="gradient/Background" transform="translate(7.531687, 21.676299)">
            <mask id="mask-2" fill="white">
                <use xlink:href="#path-1"></use>
            </mask>
            <g id="Mask">
                <use fill="black" fill-opacity="1" filter="url(#filter-3)" xlink:href="#path-1"></use>
                <use fill="#117EA9" fill-rule="evenodd" xlink:href="#path-1"></use>
            </g>
            <g id="gradient/Background-Blue" mask="url(#mask-2)" fill="url(#linearGradient-4)">
                <g transform="translate(-7.000000, 0.000000)" id="gradient/Background">
                    <rect x="0" y="0" width="120" height="81"></rect>
                </g>
            </g>
        </g>
        <g id="Group" transform="translate(14.000000, 30.000000)" fill="#217981">
            <rect id="Rectangle" x="0" y="0" width="93" height="20" rx="3.69230769"></rect>
            <rect id="Rectangle" x="0" y="48" width="93" height="15" rx="3.69230769"></rect>
            <rect id="Rectangle" x="0" y="24" width="44" height="20" rx="3.69230769"></rect>
            <rect id="Rectangle-Copy" x="48" y="24" width="44" height="20" rx="3.69230769"></rect>
        </g>
        <g id="icon/Schedule" transform="translate(48.000000, 47.000000)">
            <g id="colour/colourDarkGrey1" transform="translate(0.166667, 0.166667)">
                <mask id="mask-6" fill="white">
                    <use xlink:href="#path-5"></use>
                </mask>
                <use id="Mask" fill="#217981" xlink:href="#path-5"></use>
                <mask id="mask-8" fill="white">
                    <use xlink:href="#path-7"></use>
                </mask>
                <use id="Mask" fill="#4DDBB8" xlink:href="#path-7"></use>
            </g>
        </g>
        <g id="icon/Check/Solid/16" transform="translate(96.000000, 80.000000)">
            <rect id="Rectangle" fill="#FFFFFF" opacity="0" x="0" y="0" width="24" height="24"></rect>
            <g id="Oval">
                <use fill="black" fill-opacity="1" filter="url(#filter-10)" xlink:href="#path-9"></use>
                <use fill="#FFFFFF" fill-rule="evenodd" xlink:href="#path-9"></use>
            </g>
            <polygon id="Fill-1" fill="#4DDBB8" points="16.4425029 8.379 11.1855 13.758 8.121 10.5 6 12.6225 11.1855 18 18.5635029 10.5"></polygon>
        </g>
    </g>
</svg>