<?xml version="1.0" encoding="UTF-8"?>
<svg width="120px" height="120px" viewBox="0 0 120 120" version="1.1" xmlns="http://www.w3.org/2000/svg" xmlns:xlink="http://www.w3.org/1999/xlink">
    <!-- Generator: Sketch 58 (84663) - https://sketch.com -->
    <title>widget/TriggerScroll</title>
    <desc>Created with Sketch.</desc>
    <defs>
        <rect id="path-1" x="0.468312754" y="0.323700618" width="104.615385" height="76.5729857" rx="6.03076935"></rect>
        <filter x="-10.5%" y="-9.1%" width="121.0%" height="128.7%" filterUnits="objectBoundingBox" id="filter-3">
            <feOffset dx="0" dy="4" in="SourceAlpha" result="shadowOffsetOuter1"></feOffset>
            <feGaussianBlur stdDeviation="3" in="shadowOffsetOuter1" result="shadowBlurOuter1"></feGaussianBlur>
            <feColorMatrix values="0 0 0 0 0   0 0 0 0 0   0 0 0 0 0  0 0 0 0.106544384 0" type="matrix" in="shadowBlurOuter1"></feColorMatrix>
        </filter>
        <linearGradient x1="50%" y1="0%" x2="50%" y2="100%" id="linearGradient-4">
            <stop stop-color="#009CB2" offset="0%"></stop>
            <stop stop-color="#217981" offset="100%"></stop>
        </linearGradient>
        <circle id="path-5" cx="12" cy="12" r="12"></circle>
        <filter x="-45.8%" y="-29.2%" width="191.7%" height="191.7%" filterUnits="objectBoundingBox" id="filter-6">
            <feOffset dx="0" dy="4" in="SourceAlpha" result="shadowOffsetOuter1"></feOffset>
            <feGaussianBlur stdDeviation="3" in="shadowOffsetOuter1" result="shadowBlurOuter1"></feGaussianBlur>
            <feColorMatrix values="0 0 0 0 0   0 0 0 0 0   0 0 0 0 0  0 0 0 0.11 0" type="matrix" in="shadowBlurOuter1"></feColorMatrix>
        </filter>
    </defs>
    <g id="widget/TriggerScroll" stroke="none" stroke-width="1" fill="none" fill-rule="evenodd">
        <path d="M85.7770289,120.281519 C115.141615,120.281519 137.328795,34.2141891 117.545348,37.9040719 C97.7619011,41.5939548 91.7186936,40.9013924 91.5912821,30.4618633 C91.4638706,20.0223343 110.486342,-0.333865452 85.7770289,-0.333865452 C74.6498503,-0.333865452 69.885312,33.6004715 51.0631269,37.5659917 C32.2409419,41.5315119 5.75456655,42.4182644 5.75456655,60.7851411 C5.75456655,75.5274219 36.6728982,77.9119718 52.9370836,89.0780125 C69.2988904,100.311074 71.0508043,120.281519 85.7770289,120.281519 Z" id="Oval" fill="#E6F9F9" transform="translate(65.416544, 59.973827) scale(-1, 1) rotate(74.000000) translate(-65.416544, -59.973827) "></path>
        <g id="gradient/Background" transform="translate(7.531687, 21.676299)">
            <mask id="mask-2" fill="white">
                <use xlink:href="#path-1"></use>
            </mask>
            <g id="Mask">
                <use fill="black" fill-opacity="1" filter="url(#filter-3)" xlink:href="#path-1"></use>
                <use fill="#117EA9" fill-rule="evenodd" xlink:href="#path-1"></use>
            </g>
            <g id="gradient/Background-Blue" mask="url(#mask-2)" fill="url(#linearGradient-4)">
                <g transform="translate(-7.000000, 0.000000)" id="gradient/Background">
                    <rect x="0" y="0" width="120" height="81"></rect>
                </g>
            </g>
        </g>
        <g id="Group" transform="translate(14.000000, 30.000000)" fill="#217981">
            <rect id="Rectangle" x="0" y="0" width="93" height="20" rx="3.69230769"></rect>
            <rect id="Rectangle" x="0" y="48" width="93" height="15" rx="3.69230769"></rect>
            <rect id="Rectangle" x="0" y="24" width="44" height="20" rx="3.69230769"></rect>
            <rect id="Rectangle-Copy" x="48" y="24" width="44" height="20" rx="3.69230769"></rect>
        </g>
        <path d="M7.53168725,66.5 L12.5316872,66.5 C13.3601144,66.5 14.0316872,65.8284271 14.0316872,65 C14.0316872,64.1715729 13.3601144,63.5 12.5316872,63.5 L7.53168725,63.5 C6.70326012,63.5 6.03168725,64.1715729 6.03168725,65 C6.03168725,65.8284271 6.70326012,66.5 7.53168725,66.5 Z M17.5316872,66.5 L22.5316872,66.5 C23.3601144,66.5 24.0316872,65.8284271 24.0316872,65 C24.0316872,64.1715729 23.3601144,63.5 22.5316872,63.5 L17.5316872,63.5 C16.7032601,63.5 16.0316872,64.1715729 16.0316872,65 C16.0316872,65.8284271 16.7032601,66.5 17.5316872,66.5 Z M27.5316872,66.5 L32.5316872,66.5 C33.3601144,66.5 34.0316872,65.8284271 34.0316872,65 C34.0316872,64.1715729 33.3601144,63.5 32.5316872,63.5 L27.5316872,63.5 C26.7032601,63.5 26.0316872,64.1715729 26.0316872,65 C26.0316872,65.8284271 26.7032601,66.5 27.5316872,66.5 Z M37.5316872,66.5 L42.5316872,66.5 C43.3601144,66.5 44.0316872,65.8284271 44.0316872,65 C44.0316872,64.1715729 43.3601144,63.5 42.5316872,63.5 L37.5316872,63.5 C36.7032601,63.5 36.0316872,64.1715729 36.0316872,65 C36.0316872,65.8284271 36.7032601,66.5 37.5316872,66.5 Z M47.5316872,66.5 L52.5316872,66.5 C53.3601144,66.5 54.0316872,65.8284271 54.0316872,65 C54.0316872,64.1715729 53.3601144,63.5 52.5316872,63.5 L47.5316872,63.5 C46.7032601,63.5 46.0316872,64.1715729 46.0316872,65 C46.0316872,65.8284271 46.7032601,66.5 47.5316872,66.5 Z M57.5316872,66.5 L62.5316872,66.5 C63.3601144,66.5 64.0316872,65.8284271 64.0316872,65 C64.0316872,64.1715729 63.3601144,63.5 62.5316872,63.5 L57.5316872,63.5 C56.7032601,63.5 56.0316872,64.1715729 56.0316872,65 C56.0316872,65.8284271 56.7032601,66.5 57.5316872,66.5 Z M67.5316872,66.5 L72.5316872,66.5 C73.3601144,66.5 74.0316872,65.8284271 74.0316872,65 C74.0316872,64.1715729 73.3601144,63.5 72.5316872,63.5 L67.5316872,63.5 C66.7032601,63.5 66.0316872,64.1715729 66.0316872,65 C66.0316872,65.8284271 66.7032601,66.5 67.5316872,66.5 Z M77.5316872,66.5 L82.5316872,66.5 C83.3601144,66.5 84.0316872,65.8284271 84.0316872,65 C84.0316872,64.1715729 83.3601144,63.5 82.5316872,63.5 L77.5316872,63.5 C76.7032601,63.5 76.0316872,64.1715729 76.0316872,65 C76.0316872,65.8284271 76.7032601,66.5 77.5316872,66.5 Z M87.5316872,66.5 L92.5316872,66.5 C93.3601144,66.5 94.0316872,65.8284271 94.0316872,65 C94.0316872,64.1715729 93.3601144,63.5 92.5316872,63.5 L87.5316872,63.5 C86.7032601,63.5 86.0316872,64.1715729 86.0316872,65 C86.0316872,65.8284271 86.7032601,66.5 87.5316872,66.5 Z M97.5316872,66.5 L102.531687,66.5 C103.360114,66.5 104.031687,65.8284271 104.031687,65 C104.031687,64.1715729 103.360114,63.5 102.531687,63.5 L97.5316872,63.5 C96.7032601,63.5 96.0316872,64.1715729 96.0316872,65 C96.0316872,65.8284271 96.7032601,66.5 97.5316872,66.5 Z M107.531687,66.5 L112.531687,66.5 C113.360114,66.5 114.031687,65.8284271 114.031687,65 C114.031687,64.1715729 113.360114,63.5 112.531687,63.5 L107.531687,63.5 C106.70326,63.5 106.031687,64.1715729 106.031687,65 C106.031687,65.8284271 106.70326,66.5 107.531687,66.5 Z" id="Line" fill="#4DDBB8"></path>
        <g id="icon/Check/Solid/16" transform="translate(96.000000, 80.000000)">
            <rect id="Rectangle" fill="#FFFFFF" opacity="0" x="0" y="0" width="24" height="24"></rect>
            <g id="Oval">
                <use fill="black" fill-opacity="1" filter="url(#filter-6)" xlink:href="#path-5"></use>
                <use fill="#FFFFFF" fill-rule="evenodd" xlink:href="#path-5"></use>
            </g>
            <polygon id="Fill-1" fill="#4DDBB8" points="16.4425029 8.379 11.1855 13.758 8.121 10.5 6 12.6225 11.1855 18 18.5635029 10.5"></polygon>
        </g>
    </g>
</svg>