<?xml version="1.0" encoding="UTF-8"?>
<svg width="120px" height="120px" viewBox="0 0 120 120" version="1.1" xmlns="http://www.w3.org/2000/svg" xmlns:xlink="http://www.w3.org/1999/xlink">
    <!-- Generator: Sketch 58 (84663) - https://sketch.com -->
    <title>widget/VideoPopin</title>
    <desc>Created with Sketch.</desc>
    <defs>
        <rect id="path-1" x="0" y="1" width="98.4615385" height="91.0769231" rx="5.68615387"></rect>
        <filter x="-17.8%" y="-13.7%" width="135.5%" height="138.4%" filterUnits="objectBoundingBox" id="filter-2">
            <feOffset dx="0" dy="5" in="SourceAlpha" result="shadowOffsetOuter1"></feOffset>
            <feGaussianBlur stdDeviation="5" in="shadowOffsetOuter1" result="shadowBlurOuter1"></feGaussianBlur>
            <feColorMatrix values="0 0 0 0 0   0 0 0 0 0   0 0 0 0 0  0 0 0 0.106544384 0" type="matrix" in="shadowBlurOuter1"></feColorMatrix>
        </filter>
        <path d="M5.68615387,0.230769231 L92.7753846,0.230769231 C95.9157607,0.230769231 98.4615385,2.77654703 98.4615385,5.9169231 L98.4615385,17.3076923 L98.4615385,17.3076923 L0,17.3076923 L0,5.9169231 C-3.8458515e-16,2.77654703 2.5457778,0.230769231 5.68615387,0.230769231 Z" id="path-3"></path>
        <linearGradient x1="50%" y1="0%" x2="50%" y2="100%" id="linearGradient-5">
            <stop stop-color="#009CB2" offset="0%"></stop>
            <stop stop-color="#217981" offset="100%"></stop>
        </linearGradient>
        <rect id="path-6" x="0.0842705037" y="0.302154748" width="49.2307692" height="40.6153846" rx="3.69230769"></rect>
        <filter x="-22.3%" y="-17.2%" width="144.7%" height="154.2%" filterUnits="objectBoundingBox" id="filter-8">
            <feOffset dx="0" dy="4" in="SourceAlpha" result="shadowOffsetOuter1"></feOffset>
            <feGaussianBlur stdDeviation="3" in="shadowOffsetOuter1" result="shadowBlurOuter1"></feGaussianBlur>
            <feColorMatrix values="0 0 0 0 0   0 0 0 0 0   0 0 0 0 0  0 0 0 0.106544384 0" type="matrix" in="shadowBlurOuter1"></feColorMatrix>
        </filter>
        <linearGradient x1="100%" y1="50%" x2="0%" y2="50%" id="linearGradient-9">
            <stop stop-color="#B0EBD9" offset="0%"></stop>
            <stop stop-color="#4DDBB8" offset="100%"></stop>
        </linearGradient>
        <path d="M18.7071068,14.0821535 L18.7071068,28.3676007 C18.7071068,28.9198855 19.154822,29.3676007 19.7071068,29.3676007 C19.884959,29.3676007 20.0595933,29.3201682 20.2130071,29.2301927 L32.3944947,22.0858891 C32.8708911,21.8064881 33.0305873,21.1937932 32.7511863,20.7173968 C32.6646904,20.5699159 32.5418258,20.447075 32.3943282,20.3606076 L20.2128406,13.2194639 C19.7363903,12.9401548 19.1237263,13.0999693 18.8444172,13.5764196 C18.7545045,13.7297944 18.7071068,13.9043668 18.7071068,14.0821535 Z" id="path-10"></path>
    </defs>
    <g id="widget/VideoPopin" stroke="none" stroke-width="1" fill="none" fill-rule="evenodd">
        <g id="Group-4" transform="translate(-23.000000, -22.000000)">
            <rect id="Rectangle" fill-opacity="0" fill="#D8D8D8" fill-rule="nonzero" x="0" y="0" width="160" height="160"></rect>
            <path d="M108.777029,143.281519 C138.141615,143.281519 160.328795,57.2141891 140.545348,60.9040719 C120.761901,64.5939548 114.718694,63.9013924 114.591282,53.4618633 C114.463871,43.0223343 133.486342,22.6661345 108.777029,22.6661345 C97.6498503,22.6661345 92.885312,56.6004715 74.0631269,60.5659917 C55.2409419,64.5315119 28.7545666,65.4182644 28.7545666,83.7851411 C28.7545666,98.5274219 59.6728982,100.911972 75.9370836,112.078012 C92.2988904,123.311074 94.0508043,143.281519 108.777029,143.281519 Z" id="Oval" fill="#E6F9F9" transform="translate(88.416544, 82.973827) scale(-1, 1) rotate(74.000000) translate(-88.416544, -82.973827) "></path>
            <g id="Modal" transform="translate(31.000000, 32.230769)">
                <g id="Rectangle">
                    <use fill="black" fill-opacity="1" filter="url(#filter-2)" xlink:href="#path-1"></use>
                    <use fill="#FFFFFF" fill-rule="evenodd" xlink:href="#path-1"></use>
                </g>
                <g id="gradient/Background" transform="translate(0.000000, 0.769231)">
                    <mask id="mask-4" fill="white">
                        <use xlink:href="#path-3"></use>
                    </mask>
                    <use id="Mask" fill="#2F9BC8" xlink:href="#path-3"></use>
                    <g id="gradient/Background-Blue" mask="url(#mask-4)" fill="url(#linearGradient-5)">
                        <g transform="translate(-8.000000, 0.000000)" id="gradient/Background">
                            <rect x="0" y="0" width="120" height="19"></rect>
                        </g>
                    </g>
                </g>
                <ellipse id="Oval" fill="#217981" cx="8.52071006" cy="9.53846154" rx="2.84023669" ry="2.84615385"></ellipse>
                <ellipse id="Oval-Copy-2" fill="#217981" cx="16.0946746" cy="9.53846154" rx="2.84023669" ry="2.84615385"></ellipse>
                <ellipse id="Oval-Copy-3" fill="#217981" cx="23.6686391" cy="9.53846154" rx="2.84023669" ry="2.84615385"></ellipse>
            </g>
            <g id="Group-5" transform="translate(48.000000, 58.000000)">
                <g id="Group-2" transform="translate(30.419862, 27.132591) rotate(-15.000000) translate(-30.419862, -27.132591) translate(5.419862, 6.632591)">
                    <g id="gradient/Background">
                        <mask id="mask-7" fill="white">
                            <use xlink:href="#path-6"></use>
                        </mask>
                        <g id="Mask">
                            <use fill="black" fill-opacity="1" filter="url(#filter-8)" xlink:href="#path-6"></use>
                            <use fill="#1280AC" fill-rule="evenodd" xlink:href="#path-6"></use>
                        </g>
                        <g id="gradient/Background-Green" mask="url(#mask-7)">
                            <g transform="translate(-24.000000, -11.000000)" id="gradient/Ready">
                                <g>
                                    <polygon fill="url(#linearGradient-9)" transform="translate(60.000000, 31.500000) rotate(-90.000000) translate(-60.000000, -31.500000) " points="28.5 -28.5 91.5 -28.5 91.5 91.5 28.5 91.5"></polygon>
                                </g>
                            </g>
                        </g>
                    </g>
                    <mask id="mask-11" fill="white">
                        <use xlink:href="#path-10"></use>
                    </mask>
                    <use id="Mask" fill="#FFFFFF" fill-rule="nonzero" xlink:href="#path-10"></use>
                </g>
            </g>
        </g>
    </g>
</svg>