<?xml version="1.0" encoding="UTF-8"?>
<svg width="120px" height="120px" viewBox="0 0 120 120" version="1.1" xmlns="http://www.w3.org/2000/svg" xmlns:xlink="http://www.w3.org/1999/xlink">
    <!-- Generator: Sketch 58 (84663) - https://sketch.com -->
    <title>widget/Weather</title>
    <desc>Created with Sketch.</desc>
    <defs>
        <rect id="path-1" x="0.468312754" y="0.323700618" width="104.615385" height="76.5729857" rx="6.03076935"></rect>
        <filter x="-10.5%" y="-9.1%" width="121.0%" height="128.7%" filterUnits="objectBoundingBox" id="filter-3">
            <feOffset dx="0" dy="4" in="SourceAlpha" result="shadowOffsetOuter1"></feOffset>
            <feGaussianBlur stdDeviation="3" in="shadowOffsetOuter1" result="shadowBlurOuter1"></feGaussianBlur>
            <feColorMatrix values="0 0 0 0 0   0 0 0 0 0   0 0 0 0 0  0 0 0 0.106544384 0" type="matrix" in="shadowBlurOuter1"></feColorMatrix>
        </filter>
        <linearGradient x1="50%" y1="0%" x2="50%" y2="100%" id="linearGradient-4">
            <stop stop-color="#009CB2" offset="0%"></stop>
            <stop stop-color="#217981" offset="100%"></stop>
        </linearGradient>
        <path d="M45.15525,28.6875 C53.7885,28.6875 61.18875,34.89975 62.7975,43.29 C70.5345221,45.198761 76.3275081,52.100855 76.4962168,60.378454 L76.5,60.75 L76.5,69.1875 C76.5,70.3799063 75.5763164,71.3532734 74.4042336,71.4323172 L74.25,71.4375 L29.25,71.4375 C28.00575,71.4375 27,70.43175 27,69.1875 C27,64.9845 28.79325,61.2 31.64175,58.52925 C28.7775,55.2645 27.15525,51.0615 27.15525,46.6875 C27.15525,36.76275 35.2305,28.6875 45.15525,28.6875 Z M58.5,47.25 C52.30125,47.25 46.9215,51.453 45.4185,57.474 C45.1395,58.581 44.0505,59.28075 42.948,59.1615 C42.516,59.10525 42.07275,59.0625 41.625,59.0625 C36.91071,59.0625 32.9397696,62.2995282 31.8171547,66.6686087 L31.752,66.9375 L72,66.9375 L72,60.75 C72,53.30475 65.94525,47.25 58.5,47.25 Z M45.15525,33.1875 C37.71225,33.1875 31.65525,39.24225 31.65525,46.6875 C31.65525,49.99275 32.88375,53.17425 35.0685,55.63575 C37.13175,54.5625 39.4155,54.00225 41.7645,54 C44.244,47.2005 50.5755,42.516 57.87675,42.2055 C56.0115,36.9135 50.949,33.1875 45.15525,33.1875 Z M20.25,45 C21.49425,45 22.5,46.00575 22.5,47.25 C22.5,48.49425 21.49425,49.5 20.25,49.5 L20.25,49.5 L15.75,49.5 C14.50575,49.5 13.5,48.49425 13.5,47.25 C13.5,46.00575 14.50575,45 15.75,45 L15.75,45 Z M66.840525,25.409475 C67.6783821,26.2473321 67.7182801,27.577026 66.9602189,28.4617248 L66.840525,28.590975 L63.659025,31.772475 C63.220275,32.211225 62.644275,32.431725 62.068275,32.431725 C61.492275,32.431725 60.916275,32.211225 60.477525,31.772475 C59.6396679,30.9346179 59.5997699,29.604924 60.3578311,28.7202252 L60.477525,28.590975 L63.659025,25.409475 C64.538775,24.529725 65.960775,24.529725 66.840525,25.409475 Z M25.2799852,25.2897811 L25.40925,25.409475 L28.59075,28.590975 C29.4705,29.470725 29.4705,30.892725 28.59075,31.772475 C28.152,32.211225 27.576,32.431725 27,32.431725 C26.488,32.431725 25.976,32.2575028 25.5603951,31.9106386 L25.40925,31.772475 L22.22775,28.590975 C21.348,27.711225 21.348,26.286975 22.22775,25.409475 C23.0634643,24.5716179 24.3950969,24.5317199 25.2799852,25.2897811 Z M45,15.75 C46.1924062,15.75 47.1657734,16.67575 47.2448172,17.8460247 L47.25,18 L47.25,22.5 C47.25,23.742 46.24425,24.75 45,24.75 C43.8075937,24.75 42.8342266,23.82425 42.7551828,22.6539753 L42.75,22.5 L42.75,18 C42.75,16.758 43.75575,15.75 45,15.75 Z" id="path-5"></path>
        <path d="M4.1519779,52 L87.6767734,52 C89.885919,52.0000121 91.6767854,50.2091457 91.6767854,48 C91.6767854,47.8794095 91.6713322,47.7588807 91.6604424,47.6387829 C88.936548,17.5984163 79.186889,1.79353459 62.4114656,0.224137931 C44.8420404,-1.41954023 33.3353881,5.97701149 27.8915087,22.4137931 C18.2927966,21.2051091 10.895663,23.6706263 5.70010789,29.8103448 C1.2324052,35.0899417 -0.608983075,41.298895 0.17594305,48.4372045 C0.398910755,50.4649173 2.11204315,52 4.1519779,52 Z" id="path-7"></path>
        <linearGradient x1="100%" y1="50%" x2="0%" y2="50%" id="linearGradient-9">
            <stop stop-color="#B0EBD9" offset="0%"></stop>
            <stop stop-color="#4DDBB8" offset="100%"></stop>
        </linearGradient>
    </defs>
    <g id="widget/Weather" stroke="none" stroke-width="1" fill="none" fill-rule="evenodd">
        <path d="M85.7770289,120.281519 C115.141615,120.281519 137.328795,34.2141891 117.545348,37.9040719 C97.7619011,41.5939548 91.7186936,40.9013924 91.5912821,30.4618633 C91.4638706,20.0223343 110.486342,-0.333865452 85.7770289,-0.333865452 C74.6498503,-0.333865452 69.885312,33.6004715 51.0631269,37.5659917 C32.2409419,41.5315119 5.75456655,42.4182644 5.75456655,60.7851411 C5.75456655,75.5274219 36.6728982,77.9119718 52.9370836,89.0780125 C69.2988904,100.311074 71.0508043,120.281519 85.7770289,120.281519 Z" id="Oval" fill="#E6F9F9" transform="translate(65.416544, 59.973827) scale(-1, 1) rotate(74.000000) translate(-65.416544, -59.973827) "></path>
        <g id="Group-6" transform="translate(1.000000, 13.000000)"></g>
        <g id="partlysunny" transform="translate(7.000000, 21.000000)">
            <g id="Group">
                <g id="gradient/Background" transform="translate(0.531687, 0.676299)">
                    <mask id="mask-2" fill="white">
                        <use xlink:href="#path-1"></use>
                    </mask>
                    <g id="Mask">
                        <use fill="black" fill-opacity="1" filter="url(#filter-3)" xlink:href="#path-1"></use>
                        <use fill="#117EA9" fill-rule="evenodd" xlink:href="#path-1"></use>
                    </g>
                    <g id="gradient/Background-Blue" mask="url(#mask-2)" fill="url(#linearGradient-4)">
                        <g transform="translate(-7.000000, 0.000000)" id="gradient/Background">
                            <rect x="0" y="0" width="120" height="81"></rect>
                        </g>
                    </g>
                </g>
            </g>
        </g>
        <g id="icon/targeting/Weather" transform="translate(59.000000, 66.000000) rotate(-9.000000) translate(-59.000000, -66.000000) translate(14.000000, 21.000000)">
            <g id="icon/targeting/40/weather">
                <rect id="Rectangle" fill="#FFFFFF" opacity="0" x="0" y="0" width="90" height="90"></rect>
                <mask id="mask-6" fill="white">
                    <use xlink:href="#path-5"></use>
                </mask>
                <use id="Combined-Shape" fill="#000000" xlink:href="#path-5"></use>
                <rect id="Rectangle" fill="#FFFFFF" mask="url(#mask-6)" x="0" y="0" width="90" height="90"></rect>
            </g>
        </g>
        <g id="gradient/Background" transform="translate(28.000000, 52.000000)">
            <mask id="mask-8" fill="white">
                <use xlink:href="#path-7"></use>
            </mask>
            <use id="Mask" fill="#FFFFFF" xlink:href="#path-7"></use>
            <g id="gradient/Background-Green" mask="url(#mask-8)">
                <g transform="translate(-6.000000, -6.000000)" id="gradient/Ready">
                    <g>
                        <polygon fill="url(#linearGradient-9)" transform="translate(51.500000, 31.500000) rotate(-90.000000) translate(-51.500000, -31.500000) " points="20 -20 83 -20 83 83 20 83"></polygon>
                    </g>
                </g>
            </g>
        </g>
    </g>
</svg>