<?xml version="1.0" encoding="UTF-8"?>
<svg width="1125px" height="603px" viewBox="0 0 1125 603" version="1.1" xmlns="http://www.w3.org/2000/svg" xmlns:xlink="http://www.w3.org/1999/xlink">
    <!-- Generator: Sketch 62 (91390) - https://sketch.com -->
    <title>Double-Diamond</title>
    <desc>Created with Sketch.</desc>
    <defs>
        <linearGradient x1="50%" y1="9.42568116%" x2="50%" y2="90.7562099%" id="linearGradient-1">
            <stop stop-color="#F7F7F7" offset="0%"></stop>
            <stop stop-color="#E1E1E1" offset="100%"></stop>
        </linearGradient>
        <linearGradient x1="0%" y1="50%" x2="88.432504%" y2="50%" id="linearGradient-2">
            <stop stop-color="#A5EAD6" offset="0%"></stop>
            <stop stop-color="#6DEECE" offset="100%"></stop>
        </linearGradient>
    </defs>
    <g id="Double-Diamond" stroke="none" stroke-width="1" fill="none" fill-rule="evenodd">
        <circle id="Oval" fill="url(#linearGradient-1)" cx="563.5" cy="302.5" r="291.5"></circle>
        <g id="Group" transform="translate(309.000000, 173.000000)" fill="#FFFFFF" stroke="#7EEDD0" stroke-width="5">
            <path d="M48.3332828,38.3016407 L210.749104,38.2825382 C216.271951,38.2795366 220.74963,42.7561624 220.75028,48.2790099 C220.75028,48.279794 220.75028,48.2805781 220.747928,48.2813619 L220.728825,210.697183 C220.725823,216.219112 216.249578,220.695357 210.727649,220.698359 L48.3118279,220.717462 C42.7889807,220.720463 38.3113017,216.243838 38.3106521,210.72099 C38.310652,210.720206 38.310652,210.719422 38.3130041,210.718638 L38.3321067,48.3028168 C38.3351087,42.7808883 42.8113542,38.3046428 48.3332828,38.3016407 Z" id="Rectangle" transform="translate(129.530466, 129.500000) rotate(45.000000) translate(-129.530466, -129.500000) "></path>
            <path d="M298.272351,38.3016407 L460.688172,38.2825382 C466.211019,38.2795366 470.688698,42.7561624 470.689348,48.2790099 C470.689348,48.279794 470.689348,48.2805781 470.686996,48.2813619 L470.667893,210.697183 C470.664891,216.219112 466.188646,220.695357 460.666717,220.698359 L298.250896,220.717462 C292.728049,220.720463 288.25037,216.243838 288.24972,210.72099 C288.24972,210.720206 288.24972,210.719422 288.252072,210.718638 L288.271175,48.3028168 C288.274177,42.7808883 292.750422,38.3046428 298.272351,38.3016407 Z" id="Rectangle" transform="translate(379.469534, 129.500000) rotate(45.000000) translate(-379.469534, -129.500000) "></path>
        </g>
        <circle id="problem-framed" fill="url(#linearGradient-2)" cx="564" cy="303" r="12"></circle>
        <path d="M222,373 C261.764502,373 294,340.764502 294,301 C294,261.235498 261.764502,229 222,229 C182.235498,229 150,261.235498 150,301 C150,340.764502 182.235498,373 222,373 Z" id="Oval" stroke="#F1F1F1" stroke-width="2" fill="#FFFFFF" stroke-dasharray="4,4"></path>
        <path d="M906,373 C945.764502,373 978,340.764502 978,301 C978,261.235498 945.764502,229 906,229 C866.235498,229 834,261.235498 834,301 C834,340.764502 866.235498,373 906,373 Z" id="Oval" stroke="#F1F1F1" stroke-width="2" fill="#FFFFFF" stroke-dasharray="4,4"></path>
        <text id="Challenge" font-family="Helvetica-Bold, Helvetica" font-size="14" font-weight="bold" fill="#393939">
            <tspan x="178.444824" y="307">CHALLENGE</tspan>
        </text>
        <text id="Outcome" font-family="Helvetica-Bold, Helvetica" font-size="14" font-weight="bold" fill="#393939">
            <tspan x="870.224121" y="307">OUTCOME</tspan>
        </text>
        <text id="Discover" transform="translate(391.000000, 345.500000) rotate(45.000000) translate(-391.000000, -345.500000) " font-family="Helvetica-Bold, Helvetica" font-size="14" font-weight="bold" fill="#393939">
            <tspan x="354.437988" y="351">DISCOVER</tspan>
        </text>
        <text id="Define" transform="translate(482.000000, 345.500000) rotate(-45.000000) translate(-482.000000, -345.500000) " font-family="Helvetica-Bold, Helvetica" font-size="14" font-weight="bold" fill="#393939">
            <tspan x="456.331055" y="351">DEFINE</tspan>
        </text>
        <text id="Deliver" transform="translate(735.000000, 343.500000) rotate(-45.000000) translate(-735.000000, -343.500000) " font-family="Helvetica-Bold, Helvetica" font-size="14" font-weight="bold" fill="#393939">
            <tspan x="704.662109" y="349">DELIVER</tspan>
        </text>
        <text id="Develop" transform="translate(645.000000, 345.500000) rotate(45.000000) translate(-645.000000, -345.500000) " font-family="Helvetica-Bold, Helvetica" font-size="14" font-weight="bold" fill="#393939">
            <tspan x="611.54834" y="351">DEVELOP</tspan>
        </text>
        <line x1="438" y1="184" x2="438" y2="424" id="Path-2" stroke="#F7F7F7" stroke-width="2" stroke-linecap="round" stroke-dasharray="5,5"></line>
        <line x1="689" y1="184" x2="689" y2="424" id="Path-2" stroke="#F7F7F7" stroke-width="2" stroke-linecap="round" stroke-dasharray="5,5"></line>
        <text id="Engagement" font-family="Helvetica-Bold, Helvetica" font-size="18" font-weight="bold" fill="#6653FF">
            <tspan x="508.491211" y="85">Engagement</tspan>
        </text>
        <text id="Connecting-the-dots" font-family="Helvetica" font-size="16" font-weight="normal" fill="#A9A9A9">
            <tspan x="399.332031" y="113">Connecting the dots and building relationships </tspan>
            <tspan x="407.351562" y="132">between different citizens, stakeholders and </tspan>
            <tspan x="531.429688" y="151">partners.</tspan>
        </text>
        <path d="M815,344 C773.666667,458.666667 695,516 579,516 C376.94146,516 339,393 322,353" id="Path-3" stroke="#6653FF" stroke-width="2" stroke-linecap="round" stroke-linejoin="round" stroke-dasharray="5,9"></path>
        <path d="M559,152.72093 C529,234.72093 486.666667,273.72093 432,269.72093 C377.260106,265.715572 335.260106,225.382239 306,148.72093" id="Path-3" stroke="#6653FF" stroke-width="2" stroke-linecap="round" stroke-linejoin="round" stroke-dasharray="5,9" transform="translate(432.500000, 209.360465) scale(1, -1) translate(-432.500000, -209.360465) "></path>
        <path d="M718,244.25 C716.590952,266.009464 706.924286,278.009464 689,280.25 C673,282.25 664.333333,280.25 663,274.25" id="Path-3" stroke="#6653FF" stroke-width="2" stroke-linecap="round" stroke-linejoin="round" stroke-dasharray="5,9" transform="translate(690.500000, 262.625000) scale(1, -1) rotate(20.000000) translate(-690.500000, -262.625000) "></path>
        <polygon id="Triangle" fill="#6653FF" transform="translate(323.000000, 355.000000) rotate(-20.000000) translate(-323.000000, -355.000000) " points="323 350 328 360 318 360"></polygon>
        <polygon id="Triangle" fill="#6653FF" transform="translate(305.000000, 273.000000) rotate(-162.000000) translate(-305.000000, -273.000000) " points="305 268 310 278 300 278"></polygon>
        <polygon id="Triangle" fill="#6653FF" transform="translate(659.000000, 260.000000) rotate(-142.000000) translate(-659.000000, -260.000000) " points="659 255 664 265 654 265"></polygon>
    </g>
</svg>